<svg width="3" height="7" viewBox="0 0 3 7" fill="none" xmlns="http://www.w3.org/2000/svg">
<path d="M2.06291 6.96772C1.63055 6.82959 1.18293 6.74724 0.730511 6.72258C0.519689 6.69678 0.308859 6.65377 0.287777 6.51184C0.269265 6.29015 0.317835 6.068 0.426927 5.87533L1.05096 4.24964C1.91534 1.93582 2.54358 0.0348796 2.45081 0.000473484C2.35805 -0.0339327 1.58223 1.8111 0.717862 4.12491L0.123342 5.76351C0.00139647 6.01696 -0.0313573 6.30549 0.0305799 6.58065C0.0604354 6.65672 0.107207 6.72468 0.167208 6.77916C0.227208 6.83364 0.298799 6.87316 0.376331 6.89461C0.491492 6.9284 0.610682 6.94577 0.730511 6.94622C1.17204 7.00986 1.61963 7.01708 2.06291 6.96772Z" fill="#263238"/>
</svg>
