<svg width="12" height="3" viewBox="0 0 12 3" fill="none" xmlns="http://www.w3.org/2000/svg">
<path d="M12 0.00141352C11.8791 0.12817 11.7459 0.242185 11.6026 0.341732C11.2219 0.62279 10.8237 0.878251 10.4105 1.10649C9.0347 1.86793 7.52254 2.33872 5.96438 2.49071C5.10717 2.58257 4.24212 2.56587 3.38893 2.441C2.68912 2.34038 2.01177 2.11655 1.38706 1.77949C0.964684 1.55284 0.590179 1.24361 0.284903 0.869419C0.200306 0.769712 0.125002 0.662182 0.0599712 0.548221C0.0333248 0.511195 0.0130523 0.469815 0 0.425856C0.392804 0.936297 0.887282 1.35595 1.45079 1.65712C2.06901 1.96616 2.73252 2.17023 3.41518 2.26128C4.25462 2.37118 5.10362 2.38272 5.94564 2.2957C7.47927 2.13829 8.97127 1.69367 10.3468 0.984134C11.4002 0.441154 11.9775 -0.0291769 12 0.00141352Z" fill="#263238"/>
</svg>
