<svg width="22" height="22" viewBox="0 0 22 22" fill="none" xmlns="http://www.w3.org/2000/svg">
<path fill-rule="evenodd" clip-rule="evenodd" d="M14.6207 11.5826C14.6509 11.3929 14.6667 11.1983 14.6667 11C14.6667 8.97497 13.0251 7.33334 11 7.33334C10.8018 7.33334 10.6072 7.34908 10.4174 7.37937L14.6207 11.5826ZM7.87555 9.08012C7.53169 9.63853 7.33334 10.2961 7.33334 11C7.33334 13.0251 8.97497 14.6667 11 14.6667C11.7039 14.6667 12.3615 14.4683 12.9199 14.1245L11.411 12.6156C11.2796 12.649 11.1419 12.6667 11 12.6667C10.0795 12.6667 9.33334 11.9205 9.33334 11C9.33334 10.8582 9.35106 10.7205 9.38441 10.589L7.87555 9.08012Z" fill="#5A5A5A"/>
<path fill-rule="evenodd" clip-rule="evenodd" d="M17.5176 14.4796C18.2079 13.8431 18.7785 13.2115 19.2006 12.7056C19.2242 12.6773 19.2488 12.6482 19.2741 12.6182C19.5905 12.244 20.0188 11.7374 20.0188 11C20.0188 10.2626 19.5905 9.75601 19.2741 9.38176C19.2488 9.35182 19.2242 9.32272 19.2006 9.29442C18.5031 8.45838 17.4002 7.27919 16.0212 6.30196C14.6494 5.32978 12.923 4.5 11 4.5C9.98171 4.5 9.01853 4.73268 8.13394 5.09596L9.70962 6.67164C10.1348 6.56089 10.566 6.5 11 6.5C12.3488 6.5 13.6717 7.08818 14.8648 7.93373C16.0508 8.77424 17.0283 9.81255 17.6648 10.5756C17.7653 10.696 17.8401 10.7859 17.902 10.8649C17.9502 10.9264 17.981 10.9693 18.0011 11C17.981 11.0307 17.9502 11.0736 17.902 11.1351C17.8401 11.2141 17.7653 11.304 17.6648 11.4244C17.2665 11.9018 16.7348 12.487 16.102 13.0641L17.5176 14.4796ZM6.90016 8.10482C5.82003 8.91184 4.92919 9.86357 4.33522 10.5756C4.23473 10.696 4.15991 10.7859 4.09798 10.8649C4.04982 10.9264 4.01905 10.9693 3.99895 11C4.01905 11.0307 4.04982 11.0736 4.09798 11.1351C4.15991 11.2141 4.23473 11.304 4.33522 11.4244C4.97174 12.1874 5.94921 13.2258 7.1352 14.0663C8.32831 14.9118 9.65121 15.5 11 15.5C11.8937 15.5 12.7761 15.2418 13.6168 14.8215L15.092 16.2967C13.9005 16.9878 12.5109 17.5 11 17.5C9.07702 17.5 7.35056 16.6702 5.97877 15.698C4.59985 14.7208 3.49687 13.5416 2.79944 12.7056C2.77593 12.6774 2.75143 12.6484 2.72622 12.6186L2.72591 12.6182C2.40949 12.244 1.98117 11.7374 1.98117 11C1.98117 10.2626 2.40949 9.75601 2.72591 9.38176C2.75123 9.35182 2.77583 9.32272 2.79944 9.29442C3.40942 8.56321 4.32963 7.56951 5.47335 6.67801L6.90016 8.10482Z" fill="#5A5A5A"/>
<path d="M4.58334 1.83334L19.25 16.5" stroke="#5A5A5A" stroke-width="2"/>
</svg>
