<svg width="9" height="13" viewBox="0 0 9 13" fill="none" xmlns="http://www.w3.org/2000/svg">
<path d="M4.54574 0L0.799463 1.52848L0 4.60514L1.28996 9.72633L4.31401 13L6.35708 11.2784L6.48453 8.12694L6.73171 6.36604C6.73171 6.36604 8.57781 5.77513 8.62415 5.48755C8.6705 5.19998 8.39629 4.2309 8.11435 4.18756C7.83242 4.14423 5.89362 4.87696 5.89362 4.87696C5.89362 4.87696 8.18387 3.02545 8.12207 2.72606C8.06028 2.42666 7.80924 1.67031 7.34965 1.58364C6.89005 1.49697 3.19399 3.27757 3.19399 3.27757L2.59149 4.67604L2.06624 2.44242C2.06624 2.44242 5.36065 1.52454 4.54574 0Z" fill="#B78876"/>
</svg>
