<svg width="2" height="3" viewBox="0 0 2 3" fill="none" xmlns="http://www.w3.org/2000/svg">
<path d="M0 2.7093C0 2.7093 0.0576804 2.75244 0.153818 2.80344C0.222378 2.83688 0.296747 2.85618 0.37264 2.86022C0.448533 2.86426 0.524451 2.85296 0.59605 2.82697C0.957529 2.70537 1.27671 2.13662 1.31132 1.51688C1.32883 1.22103 1.28153 0.924911 1.17288 0.650022C1.14431 0.541768 1.09061 0.442126 1.01631 0.359515C0.942016 0.276903 0.84931 0.213756 0.746031 0.175412C0.678894 0.15299 0.606064 0.156128 0.541022 0.184252C0.475981 0.212375 0.423124 0.26358 0.392238 0.328386C0.342247 0.422524 0.361476 0.493125 0.346094 0.497047C0.330712 0.50097 0.273035 0.438213 0.303799 0.297006C0.326587 0.21212 0.376699 0.13752 0.446081 0.0851974C0.492429 0.0500547 0.545339 0.0249641 0.601554 0.0114723C0.65777 -0.00201951 0.716104 -0.00363161 0.772953 0.00674403C0.911819 0.0359228 1.04099 0.10104 1.14807 0.195833C1.25515 0.290626 1.33653 0.411912 1.38439 0.548041C1.5166 0.852415 1.57591 1.18451 1.55743 1.51688C1.51513 2.21115 1.14596 2.8505 0.649893 2.97994C0.55844 3.00388 0.462862 3.00644 0.370305 2.98742C0.277747 2.9684 0.190595 2.9283 0.115361 2.87012C-4.69882e-06 2.79559 0 2.71714 0 2.7093Z" fill="#AA6550"/>
</svg>
