<svg width="1" height="10" viewBox="0 0 1 10" fill="none" xmlns="http://www.w3.org/2000/svg">
<path d="M0.232668 10C0.343945 9.9199 0.435693 9.81478 0.50082 9.69277C0.705431 9.37419 0.838397 9.01337 0.890184 8.6362C0.962579 8.08145 0.946451 7.5184 0.84243 6.96891C0.735906 6.34695 0.530203 5.69502 0.383273 5.00562C0.216539 4.36817 0.177808 3.70293 0.269403 3.04983C0.375927 2.4616 0.636731 1.96328 0.765295 1.49869C0.881055 1.13473 0.891254 0.744407 0.794676 0.374672C0.769216 0.231474 0.699755 0.100254 0.596328 0C0.577962 0 0.658773 0.134882 0.710198 0.374672C0.767274 0.730925 0.733103 1.09618 0.611013 1.435C0.396571 1.94226 0.213772 2.46285 0.0637013 2.99363C-0.0461805 3.67478 -0.0136304 4.37193 0.15921 5.03934C0.313486 5.74372 0.526531 6.39191 0.636729 6.99139C0.749438 7.51899 0.780424 8.06134 0.72856 8.59873C0.669355 9.09808 0.499797 9.57721 0.232668 10Z" fill="#455A64"/>
</svg>
