<svg width="5" height="3" viewBox="0 0 5 3" fill="none" xmlns="http://www.w3.org/2000/svg">
<path d="M4.61658 2.99994C4.58555 2.7002 4.48533 2.41223 4.32412 2.15962C4.13616 1.89954 3.87227 1.70686 3.5703 1.60921C3.19054 1.49616 2.79592 1.44372 2.40044 1.45376C1.98637 1.46442 1.57232 1.43203 1.16468 1.35712C0.827966 1.29085 0.514123 1.13587 0.254334 0.907547C0.165706 0.826386 0.0968439 0.725268 0.0532259 0.612219C0.00960794 0.499169 -0.00757123 0.377302 0.00305562 0.256298C0.0067685 0.164741 0.0352903 0.0760253 0.085445 0C0.085445 0 0.085445 0.0882344 0.085445 0.243694C0.087647 0.350476 0.112764 0.455469 0.159022 0.551287C0.20528 0.647105 0.271553 0.731418 0.353192 0.798302C0.604646 0.997381 0.900344 1.13015 1.21411 1.18485C1.60794 1.24606 2.00633 1.27137 2.40457 1.26048C2.81665 1.25138 3.22733 1.31244 3.61973 1.44115C3.95632 1.55014 4.24675 1.77231 4.44357 2.07139C4.5659 2.27052 4.63939 2.49679 4.65778 2.73104C4.64542 2.91171 4.61658 2.99994 4.61658 2.99994Z" fill="#EB996E"/>
</svg>
