<svg width="20" height="18" viewBox="0 0 20 18" fill="none" xmlns="http://www.w3.org/2000/svg">
<path d="M17.8072 2.19279C17.3561 1.74148 16.8205 1.38347 16.231 1.13921C15.6415 0.894951 15.0097 0.769231 14.3716 0.769231C13.7335 0.769231 13.1016 0.894951 12.5121 1.13921C11.9226 1.38347 11.387 1.74148 10.936 2.19279L9.99976 3.12898L9.06358 2.19279C8.15239 1.2816 6.91656 0.769703 5.62795 0.769703C4.33933 0.769703 3.1035 1.2816 2.19232 2.19279C1.28113 3.10397 0.769231 4.33981 0.769231 5.62842C0.769231 6.91703 1.28113 8.15286 2.19232 9.06405L3.1285 10.0002L9.99976 16.8715L16.871 10.0002L17.8072 9.06405C18.2585 8.61295 18.6165 8.07736 18.8608 7.48786C19.105 6.89836 19.2308 6.26652 19.2308 5.62842C19.2308 4.99032 19.105 4.35847 18.8608 3.76898C18.6165 3.17948 18.2585 2.64389 17.8072 2.19279V2.19279Z" stroke="#5B7083" stroke-width="1.5" stroke-linecap="round" stroke-linejoin="round"/>
</svg>
