<svg width="4" height="4" viewBox="0 0 4 4" fill="none" xmlns="http://www.w3.org/2000/svg">
<path d="M3.93333 1.88303C3.95404 2.27002 3.8645 2.65485 3.67549 2.99106C3.48648 3.32728 3.2061 3.6005 2.8682 3.77775C2.53029 3.95499 2.1493 4.02867 1.77124 3.9899C1.39317 3.95113 1.0342 3.80155 0.737653 3.55925C0.441102 3.31694 0.219653 2.99226 0.100047 2.62439C-0.0195577 2.25653 -0.0322063 1.8612 0.0636252 1.48617C0.159457 1.11113 0.359673 0.772399 0.640101 0.510882C0.920529 0.249364 1.26917 0.0762415 1.64395 0.012405C2.19054 -0.0481643 2.7384 0.114698 3.1675 0.465314C3.59661 0.81593 3.87198 1.32572 3.93333 1.88303Z" fill="#FAFAFA"/>
</svg>
