<svg width="3" height="10" viewBox="0 0 3 10" fill="none" xmlns="http://www.w3.org/2000/svg">
<path d="M2.99883 9.60433C2.97367 9.57267 2.9523 9.53805 2.93518 9.50122C2.89774 9.43249 2.84533 9.32556 2.78543 9.18808C2.62109 8.79447 2.49568 8.38511 2.41104 7.96609C2.27865 7.3392 2.23703 6.69591 2.2875 6.05672C2.37647 5.28364 2.51909 4.51797 2.7143 3.76547C2.9055 3.02582 2.9055 2.24825 2.7143 1.5086C2.62436 1.19238 2.46713 0.900302 2.25381 0.653196C2.0645 0.442456 1.82635 0.283578 1.56119 0.191132C1.17667 0.0439615 0.751138 0.054916 0.374386 0.221682C0.240848 0.29583 0.115357 0.384151 0 0.485176C0.0871517 0.352899 0.205621 0.245192 0.344435 0.172037C0.536455 0.0744122 0.745702 0.0170215 0.959828 0.00324798C1.17395 -0.0105255 1.38862 0.0196006 1.59114 0.0918465C1.87692 0.184395 2.13469 0.350041 2.33991 0.573006C2.56946 0.831124 2.74071 1.13745 2.84159 1.47041C3.04039 2.23235 3.04039 3.03408 2.84159 3.79602C2.65118 4.54122 2.50491 5.29742 2.40356 6.06053C2.35123 6.68443 2.38272 7.3127 2.49716 7.9279C2.5738 8.34335 2.68656 8.75102 2.8341 9.14608C2.93893 9.44776 3.01006 9.59669 2.99883 9.60433Z" fill="#455A64"/>
</svg>
