<svg width="31" height="26" viewBox="0 0 31 26" fill="none" xmlns="http://www.w3.org/2000/svg">
<path d="M4.98726 17.7874L9.21488 22.291C9.34834 22.4353 9.53243 22.5199 9.72687 22.5263C9.9213 22.5326 10.1103 22.4601 10.2525 22.3247L27.071 5.84914C27.1394 5.77943 27.1937 5.69665 27.2307 5.60553C27.2678 5.51441 27.2868 5.41673 27.2868 5.31809C27.2868 5.21945 27.2678 5.12178 27.2307 5.03066C27.1937 4.93954 27.1394 4.85676 27.071 4.78705L22.8434 0.283468C22.7099 0.139089 22.5259 0.0544847 22.3314 0.0481551C22.137 0.0418255 21.948 0.114286 21.8058 0.249691L4.99095 16.7253C4.92229 16.7947 4.86773 16.8773 4.83038 16.9683C4.79303 17.0593 4.77363 17.1569 4.77329 17.2556C4.77295 17.3542 4.79166 17.4519 4.82838 17.5432C4.8651 17.6344 4.91909 17.7174 4.98726 17.7874Z" fill="#F5F5F5"/>
<path d="M4.98731 17.7874C4.94649 17.7508 4.91172 17.7077 4.8843 17.6598C4.79581 17.5195 4.75568 17.3531 4.77024 17.1869C4.77988 17.0641 4.81905 16.9455 4.8843 16.8417C4.97382 16.7262 5.07358 16.6194 5.18233 16.5227L5.94765 15.7721L10.8339 10.9532C12.9054 8.91913 15.3669 6.50221 18.097 3.82258L20.1979 1.76219L21.2834 0.696347C21.471 0.519956 21.6513 0.339812 21.8426 0.155916C21.9561 0.0719184 22.0893 0.0197453 22.2287 0.00459949C22.3682 -0.0105464 22.5091 0.0118645 22.6374 0.0695978C22.7619 0.130151 22.8723 0.217164 22.9612 0.324801L23.2334 0.610027C23.4137 0.801429 23.6014 0.985325 23.778 1.18799C24.1386 1.57579 24.5065 1.96485 24.8818 2.35516L27.1262 4.74206C27.2304 4.85095 27.3031 4.98708 27.3362 5.13543C27.3693 5.28377 27.3616 5.43857 27.3139 5.58273C27.2646 5.72731 27.1797 5.85654 27.0674 5.95803L26.773 6.24325L25.6103 7.36915L23.3401 9.59467L19.0389 13.7867L11.7537 20.9174L10.282 22.3623C10.1589 22.477 10.0027 22.5477 9.83679 22.564C9.67089 22.5802 9.5043 22.5411 9.36212 22.4524C9.23684 22.3621 9.12313 22.2562 9.02362 22.1371L8.72559 21.8144L6.69824 19.6452L5.42516 18.2753L5.09771 17.9L4.98731 17.7724C4.98731 17.7724 5.03147 17.8099 5.10874 17.8888L5.44355 18.2378L6.73502 19.5889C7.29429 20.1781 7.97499 20.8986 8.76974 21.7318C8.86908 21.8369 8.96843 21.9457 9.07145 22.0508C9.16514 22.1655 9.2727 22.2677 9.39156 22.3548C9.51984 22.4339 9.66974 22.4686 9.81892 22.4537C9.9681 22.4388 10.1086 22.3752 10.2194 22.2722L11.6912 20.8198L18.9543 13.6892L23.2481 9.47833L25.5073 7.26031L26.67 6.13442L26.9644 5.84544C27.0618 5.76321 27.1355 5.65555 27.1777 5.53394C27.2167 5.41277 27.2226 5.28306 27.1947 5.15875C27.1668 5.03444 27.1063 4.92023 27.0195 4.82838L24.7714 2.43022L23.6676 1.26304C23.4836 1.07164 23.2997 0.887749 23.1231 0.685088L22.8545 0.399861C22.7766 0.303754 22.6785 0.226786 22.5675 0.174681C22.4604 0.124745 22.3421 0.105021 22.2249 0.117562C22.1078 0.130104 21.9961 0.174452 21.9015 0.245988C21.7212 0.407367 21.5336 0.598769 21.3496 0.775159C20.9817 1.15046 20.6137 1.48823 20.2458 1.83725L18.1816 3.88263L10.8964 11.0133L5.98075 15.8059L5.20809 16.5564C5.10059 16.6506 5.00205 16.7549 4.91374 16.8679C4.84659 16.9641 4.80593 17.0768 4.796 17.1945C4.7787 17.3565 4.81356 17.5198 4.89532 17.6598C4.9239 17.7039 4.9546 17.7465 4.98731 17.7874Z" fill="#263238"/>
<path d="M22.1063 0.845507L19.0528 3.87645L23.3868 8.41925L26.4404 5.38831L22.1063 0.845507Z" fill="#FCA465"/>
<path d="M12.1612 10.7156L9.10762 13.7465L13.4417 18.2893L16.4952 15.2584L12.1612 10.7156Z" fill="#FCA465"/>
<path d="M15.4802 7.42307L12.4267 10.454L16.7607 14.9968L19.8143 11.9659L15.4802 7.42307Z" fill="#FCA465"/>
<path d="M18.8021 4.12798L15.7485 7.15892L20.0826 11.7017L23.1362 8.67078L18.8021 4.12798Z" fill="#FCA465"/>
<g opacity="0.8">
<path d="M22.1063 0.845507L19.0527 3.87645L23.3868 8.41925L26.4404 5.38831L22.1063 0.845507Z" fill="black"/>
</g>
<g opacity="0.5">
<path d="M12.1613 10.7155L9.10774 13.7464L13.4418 18.2892L16.4954 15.2583L12.1613 10.7155Z" fill="black"/>
</g>
<g opacity="0.6">
<path d="M15.4803 7.42307L12.4267 10.454L16.7608 14.9968L19.8143 11.9659L15.4803 7.42307Z" fill="black"/>
</g>
<g opacity="0.7">
<path d="M18.802 4.12798L15.7484 7.15892L20.0825 11.7017L23.1361 8.67078L18.802 4.12798Z" fill="black"/>
</g>
<path d="M5.27067 17.0181L8.21419 22.4637C8.30623 22.6365 8.46113 22.7656 8.64555 22.8232C8.82996 22.8807 9.02915 22.8621 9.20026 22.7714L29.3155 11.4299C29.4816 11.3297 29.6024 11.1669 29.652 10.9766C29.7015 10.7864 29.6758 10.5839 29.5804 10.4128L26.6369 4.96726C26.5455 4.79375 26.3909 4.66384 26.2064 4.60557C26.0219 4.54729 25.8224 4.56532 25.6508 4.65576L5.53926 16.0048C5.37354 16.1044 5.25265 16.2662 5.20245 16.4556C5.15224 16.645 5.17673 16.8469 5.27067 17.0181Z" fill="#F5F5F5"/>
<path d="M5.27055 17.0181C5.23887 16.9725 5.21521 16.9217 5.20064 16.8679C5.14821 16.711 5.14821 16.5408 5.20064 16.3838C5.23877 16.269 5.30457 16.1657 5.39197 16.0836C5.50713 15.9943 5.63033 15.9164 5.75991 15.8509L6.67976 15.3255L12.5668 11.9891L21.2906 7.0539L23.811 5.63152L25.1135 4.88092L25.4447 4.69327C25.5613 4.62225 25.6846 4.56317 25.8126 4.51688C25.9468 4.48083 26.0878 4.4809 26.222 4.51708C26.3561 4.55326 26.4787 4.62431 26.5779 4.7233C26.6691 4.82357 26.7449 4.93748 26.8024 5.06107L26.99 5.40634L27.3469 6.13442L28.0828 7.51927C28.5955 8.46252 29.113 9.41703 29.6355 10.3828C29.7081 10.5134 29.7444 10.6618 29.7405 10.8119C29.7366 10.962 29.6927 11.1082 29.6134 11.2347C29.5316 11.3578 29.4201 11.4573 29.2896 11.5237L28.9217 11.7189L27.553 12.5145L24.8265 14.0495L19.6754 16.9543L10.9331 21.8594C10.3076 22.2047 9.72629 22.5425 9.1523 22.8502C8.99853 22.9109 8.82969 22.9197 8.67068 22.8751C8.51168 22.8305 8.37096 22.7349 8.26926 22.6025C8.09633 22.336 7.97489 22.0733 7.83507 21.8219L6.44427 19.2361L5.56858 17.596C5.47291 17.4121 5.39933 17.2695 5.34414 17.1682L5.27055 17.0181C5.27055 17.0181 5.29997 17.0631 5.35516 17.1607L5.59065 17.581L6.48474 19.2061L7.89396 21.7844C8.03377 22.0283 8.16622 22.306 8.32444 22.535C8.41612 22.6539 8.54288 22.7396 8.68598 22.7795C8.82908 22.8194 8.98096 22.8113 9.1192 22.7564C9.67479 22.4524 10.2672 22.1071 10.8853 21.7581L19.6202 16.8417L24.7713 13.9294L27.4978 12.3906L28.8923 11.6063L29.2602 11.4074C29.3728 11.3525 29.4693 11.2684 29.5398 11.1634C29.6058 11.0567 29.6423 10.9337 29.6456 10.8076C29.6488 10.6814 29.6186 10.5567 29.5582 10.4466L28.0055 7.58307L27.2476 6.17946L26.8796 5.48891L26.692 5.14363C26.6402 5.03119 26.5719 4.92743 26.4896 4.83589C26.4077 4.75136 26.3053 4.69049 26.1929 4.65951C26.0804 4.62852 25.9619 4.62851 25.8494 4.6595C25.735 4.70307 25.6253 4.7584 25.5219 4.82463L25.1908 5.00852L23.8883 5.75912L21.3642 7.17775L12.5999 12.0754L6.71286 15.3743L5.78199 15.8922C5.65234 15.9517 5.52905 16.0246 5.41405 16.1098C5.32891 16.1895 5.26336 16.2885 5.22271 16.3988C5.17532 16.5515 5.17532 16.7153 5.22271 16.8679C5.24847 16.973 5.27055 17.0181 5.27055 17.0181Z" fill="#263238"/>
<path d="M25.5245 5.65299L21.8081 7.7785L24.8475 13.3074L28.5639 11.1819L25.5245 5.65299Z" fill="#FCA465"/>
<path d="M13.4221 12.5784L9.70566 14.7039L12.745 20.2329L16.4614 18.1074L13.4221 12.5784Z" fill="#FCA465"/>
<path d="M17.46 10.2693L13.7436 12.3948L16.783 17.9238L20.4994 15.7982L17.46 10.2693Z" fill="#FCA465"/>
<path d="M21.5047 7.95452L17.7883 10.08L20.8277 15.609L24.5441 13.4835L21.5047 7.95452Z" fill="#FCA465"/>
<g opacity="0.5">
<path d="M25.5244 5.65299L21.808 7.7785L24.8474 13.3074L28.5638 11.1819L25.5244 5.65299Z" fill="black"/>
</g>
<g opacity="0.2">
<path d="M13.422 12.5786L9.70557 14.7041L12.7449 20.233L16.4613 18.1075L13.422 12.5786Z" fill="black"/>
</g>
<g opacity="0.3">
<path d="M17.46 10.2693L13.7436 12.3948L16.783 17.9238L20.4994 15.7982L17.46 10.2693Z" fill="black"/>
</g>
<g opacity="0.4">
<path d="M21.5049 7.9544L17.7885 10.0799L20.8279 15.6089L24.5443 13.4833L21.5049 7.9544Z" fill="black"/>
</g>
<path d="M4.5347 16.973L5.8372 23.0491C5.85714 23.1478 5.89635 23.2414 5.95249 23.3243C6.00864 23.4071 6.08058 23.4777 6.16402 23.5316C6.24745 23.5855 6.34067 23.6218 6.43813 23.6382C6.53559 23.6546 6.63529 23.6508 6.73129 23.6271L30.3199 18.3729C30.4169 18.3538 30.5091 18.3149 30.591 18.2587C30.6729 18.2025 30.7429 18.13 30.7968 18.0456C30.8507 17.9612 30.8874 17.8666 30.9047 17.7675C30.922 17.6683 30.9196 17.5666 30.8976 17.4684L29.5914 11.3886C29.571 11.2902 29.5315 11.1971 29.4752 11.1146C29.4188 11.0321 29.3469 10.962 29.2635 10.9085C29.1801 10.8549 29.087 10.819 28.9897 10.8028C28.8925 10.7867 28.793 10.7906 28.6973 10.8144L5.10869 16.0686C5.01206 16.0881 4.92027 16.1272 4.83875 16.1837C4.75723 16.2401 4.68765 16.3126 4.63412 16.3969C4.58059 16.4813 4.54421 16.5757 4.52713 16.6747C4.51006 16.7737 4.51262 16.8751 4.5347 16.973Z" fill="#F5F5F5"/>
<path d="M4.53461 16.973C4.51994 16.9167 4.51252 16.8586 4.51253 16.8004C4.51183 16.6285 4.56897 16.4616 4.67443 16.3275C4.75256 16.2292 4.85208 16.1508 4.96509 16.0986C5.10408 16.0491 5.24685 16.0114 5.39192 15.986L6.46261 15.742L13.2805 14.1995L23.3989 11.9478L26.3424 11.2947L27.8546 10.957L28.6199 10.7843C28.7551 10.7448 28.8972 10.7371 29.0357 10.7618C29.173 10.7907 29.3001 10.8568 29.4036 10.9532C29.5161 11.0525 29.5978 11.1828 29.6391 11.3285C29.6796 11.4749 29.7017 11.5987 29.7311 11.7338C29.7863 12.0003 29.8452 12.2668 29.904 12.537C30.0181 13.0736 30.1358 13.6178 30.272 14.162C30.5038 15.2541 30.7429 16.3613 30.9821 17.4834C31.0141 17.6362 31.0031 17.7952 30.9503 17.9419C30.8976 18.0887 30.8053 18.2172 30.6841 18.3128C30.5633 18.4026 30.4233 18.4618 30.2757 18.4855L29.8672 18.5755L28.2483 18.9508L25.0877 19.6564L19.1087 20.9849L8.98301 23.2367L6.92622 23.6908C6.84527 23.6908 6.76801 23.7284 6.6797 23.7434C6.59557 23.7566 6.50996 23.7566 6.42582 23.7434C6.25988 23.7086 6.10983 23.6189 5.999 23.4882C5.89528 23.3631 5.82777 23.2111 5.80401 23.0491C5.77457 22.8952 5.74146 22.7488 5.71202 22.6025C5.4655 21.4353 5.25208 20.4295 5.07915 19.6001L4.68546 17.7236C4.64498 17.5097 4.61188 17.3483 4.58613 17.232C4.56037 17.1156 4.55669 17.0631 4.55669 17.0631C4.55669 17.0631 4.55668 17.1194 4.60084 17.2282L4.71121 17.7198C4.80688 18.1552 4.9467 18.7932 5.13067 19.5963C5.31464 20.3995 5.52805 21.424 5.78193 22.5987C5.81137 22.7451 5.84448 22.8915 5.8776 23.0416C5.89614 23.1922 5.95899 23.3335 6.05788 23.4469C6.154 23.5606 6.2827 23.6407 6.42582 23.6758C6.58233 23.7005 6.74231 23.6877 6.89309 23.6383L8.94988 23.1729L19.0682 20.9211L25.0472 19.5851L28.2078 18.8795L29.8268 18.5042L30.2315 18.4141C30.3648 18.3974 30.4916 18.3457 30.5995 18.264C30.7024 18.1843 30.7809 18.0763 30.8259 17.9526C30.8708 17.829 30.8804 17.6949 30.8533 17.566C30.6142 16.4401 30.375 15.3367 30.1432 14.2483C30.0254 13.7004 29.9077 13.16 29.7937 12.6195C29.7348 12.3531 29.6796 12.0829 29.6207 11.8164C29.5913 11.6888 29.5655 11.5462 29.5361 11.4411C29.496 11.3233 29.4277 11.2175 29.3374 11.1334C29.2441 11.0518 29.1318 10.9961 29.0113 10.9718C28.8907 10.9475 28.7661 10.9553 28.6494 10.9945L27.8804 11.1671L26.3681 11.5012L23.443 12.1504L13.321 14.4022L6.49205 15.9034L5.41767 16.1361C5.27457 16.1619 5.13323 16.197 4.99453 16.2412C4.88476 16.2902 4.78773 16.3648 4.71121 16.4588C4.60833 16.5874 4.55012 16.7471 4.54566 16.913C4.53462 16.913 4.53461 16.973 4.53461 16.973Z" fill="#263238"/>
<path d="M4.48306 16.9955C4.48306 17.0217 4.18504 16.9955 3.66624 17.1006C2.93881 17.2438 2.25894 17.5731 1.6904 18.0576C0.849894 18.7825 0.321503 19.8146 0.218642 20.9324C0.150986 21.7568 0.322515 22.5834 0.71187 23.3091C1.10123 24.0349 1.69122 24.6279 2.40845 25.0143C3.12567 25.4007 3.93845 25.5634 4.74565 25.4822C5.55285 25.401 6.31882 25.0795 6.94826 24.5577C7.43103 24.1534 7.82046 23.6454 8.08884 23.07C8.35721 22.4947 8.49794 21.866 8.50097 21.2288C8.50097 21.0975 8.50097 20.9774 8.50097 20.8535C8.50097 20.7297 8.50097 20.6659 8.47521 20.5946C8.46551 20.5211 8.46551 20.4466 8.47521 20.3732C8.50729 20.4392 8.52842 20.5102 8.53776 20.5833C8.53776 20.6546 8.57456 20.741 8.58927 20.846C8.60399 20.9511 8.61134 21.075 8.62238 21.2213C8.65847 22.0061 8.48015 22.7857 8.10727 23.4731C7.83324 23.9859 7.46116 24.4374 7.01309 24.801C6.56502 25.1645 6.05004 25.4328 5.49857 25.5898C4.82034 25.7868 4.1051 25.8111 3.41552 25.6606C2.72594 25.5101 2.08307 25.1894 1.54323 24.7266C1.26587 24.4844 1.01873 24.2084 0.807347 23.9047C0.602287 23.6048 0.433066 23.281 0.303272 22.9402C0.0635697 22.3273 -0.0361598 21.6668 0.0116532 21.0087C0.0594662 20.3507 0.253566 19.7123 0.579226 19.1422C0.899386 18.5732 1.34248 18.0862 1.87484 17.7181C2.4072 17.3501 3.01483 17.1106 3.65152 17.018C3.85618 16.9881 4.06316 16.9781 4.26967 16.988C4.34077 16.9795 4.4127 16.982 4.48306 16.9955Z" fill="#263238"/>
<path d="M9.15218 19.4387C9.19089 19.6215 9.17562 19.8119 9.1083 19.9858C9.04098 20.1597 8.92465 20.3094 8.77398 20.4158C8.62331 20.5223 8.44506 20.5809 8.26178 20.5841C8.07849 20.5873 7.89839 20.535 7.74423 20.4338C7.59006 20.3327 7.46877 20.1872 7.39564 20.0157C7.32252 19.8443 7.30087 19.6546 7.33342 19.4705C7.36596 19.2865 7.45126 19.1165 7.57851 18.9819C7.70577 18.8473 7.86926 18.7543 8.04836 18.7144C8.16748 18.6879 8.29054 18.6857 8.41051 18.7077C8.53048 18.7298 8.64502 18.7758 8.74755 18.8431C8.85007 18.9104 8.9386 18.9976 9.00803 19.0998C9.07746 19.202 9.12644 19.3172 9.15218 19.4387Z" fill="#263238"/>
<path d="M28.8657 11.6101L24.7033 12.5381L26.0303 18.7307L30.1928 17.8027L28.8657 11.6101Z" fill="#FCA465"/>
<path d="M24.364 12.6166L20.2015 13.5447L21.5286 19.7372L25.6911 18.8092L24.364 12.6166Z" fill="#FCA465"/>
<path d="M19.8338 13.625L15.6713 14.553L16.9984 20.7456L21.1608 19.8176L19.8338 13.625Z" fill="#FCA465"/>
<path d="M15.3104 14.6325L11.148 15.5605L12.475 21.7531L16.6375 20.8251L15.3104 14.6325Z" fill="#FCA465"/>
<g opacity="0.8">
<path d="M15.3104 14.6325L11.1479 15.5605L12.475 21.7531L16.6374 20.8251L15.3104 14.6325Z" fill="white"/>
</g>
<g opacity="0.6">
<path d="M19.8339 13.625L15.6714 14.553L16.9985 20.7456L21.1609 19.8176L19.8339 13.625Z" fill="white"/>
</g>
<g opacity="0.4">
<path d="M24.364 12.6167L20.2015 13.5448L21.5286 19.7374L25.6911 18.8093L24.364 12.6167Z" fill="white"/>
</g>
</svg>
