<svg width="6" height="3" viewBox="0 0 6 3" fill="none" xmlns="http://www.w3.org/2000/svg">
<path d="M5.50341 0.0676808L0.4996 0.0159234C0.441429 -0.00138227 0.380105 -0.00463379 0.320488 0.0064224C0.260871 0.0174786 0.204598 0.0425403 0.156123 0.0796239C0.107647 0.116708 0.068312 0.164793 0.0412134 0.220074C0.0141149 0.275355 0 0.336314 0 0.39812C0 0.459926 0.0141149 0.52088 0.0412134 0.576161C0.068312 0.631442 0.107647 0.679533 0.156123 0.716617C0.204598 0.7537 0.260871 0.778762 0.320488 0.789818C0.380105 0.800874 0.441429 0.797617 0.4996 0.780311H1.04994L1.76421 2.2016C1.80446 2.28177 1.8653 2.3493 1.94022 2.39698C2.01515 2.44465 2.10137 2.47069 2.18966 2.47232L3.98119 2.49222C4.07003 2.49304 4.15731 2.46849 4.23318 2.42136C4.30905 2.37422 4.37049 2.30637 4.41054 2.22548L5.13652 0.824104H5.50732C5.56521 0.84015 5.62593 0.842375 5.6848 0.830598C5.74366 0.818822 5.79908 0.793362 5.84673 0.7562C5.89439 0.719039 5.933 0.671173 5.95958 0.616321C5.98616 0.56147 5.99999 0.501107 5.99999 0.439921C5.99999 0.378735 5.98616 0.318373 5.95958 0.263521C5.933 0.208669 5.89439 0.160803 5.84673 0.123642C5.79908 0.0864806 5.74366 0.0610206 5.6848 0.0492438C5.62593 0.0374669 5.56521 0.0396917 5.50732 0.0557377L5.50341 0.0676808Z" fill="#263238"/>
</svg>
