<svg width="7" height="6" viewBox="0 0 7 6" fill="none" xmlns="http://www.w3.org/2000/svg">
<path d="M0 0.010694C0.175037 -0.00356468 0.350915 -0.00356468 0.525952 0.010694L1.96379 0.0685836C3.18217 0.126476 4.86974 0.219107 6.75785 0.338751H7.00001L6.81461 0.500842C6.70488 0.597328 6.58759 0.701533 6.4665 0.801879C4.95299 2.12182 3.56433 3.30282 2.55406 4.1519L1.3546 5.1515C1.21411 5.28192 1.06067 5.39704 0.896768 5.49499C1.02199 5.35473 1.15869 5.22562 1.30541 5.10904L2.46325 4.05927C3.45082 3.18317 4.82055 1.98288 6.33785 0.666808C6.45893 0.562602 6.57623 0.458397 6.68975 0.36577L6.7465 0.539439C4.85461 0.419795 3.17082 0.304009 1.95622 0.211382L0.522165 0.087888C0.345892 0.0814205 0.17082 0.0555358 0 0.010694Z" fill="#455A64"/>
</svg>
