<svg width="5" height="4" viewBox="0 0 5 4" fill="none" xmlns="http://www.w3.org/2000/svg">
<path d="M0 4.00002C0.069223 3.68264 0.117653 3.36091 0.144969 3.03697C0.158883 2.67515 0.22014 2.31684 0.327111 1.97157C0.395957 1.75878 0.508772 1.56356 0.657937 1.39906C0.824886 1.23131 1.02516 1.10202 1.24525 1.01991C2.10762 0.701426 2.88451 0.443605 3.45323 0.261614C3.75523 0.143913 4.06769 0.0562991 4.38623 0C4.10238 0.154439 3.80494 0.281378 3.49784 0.379149C2.94398 0.595264 2.16338 0.879619 1.31587 1.19052C1.11852 1.26187 0.938503 1.37566 0.788033 1.52417C0.654001 1.66733 0.551367 1.83793 0.486945 2.02465C0.377984 2.35515 0.306888 2.6974 0.275071 3.04457C0.266218 3.382 0.171419 3.71127 0 4.00002Z" fill="#AA6550"/>
</svg>
