<svg width="19" height="25" viewBox="0 0 19 25" fill="none" xmlns="http://www.w3.org/2000/svg">
<path d="M18.8167 15.7769C18.6969 15.9805 18.5366 16.1562 18.3462 16.2927C18.1557 16.4293 17.9393 16.5235 17.7109 16.5695C17.4825 16.6154 17.2473 16.612 17.0202 16.5594C16.7932 16.5069 16.5796 16.4063 16.393 16.2643C16.6041 17.1381 16.5411 18.0574 16.2127 18.8927C15.8843 19.7279 15.3072 20.437 14.5627 20.9199C13.8182 21.4028 12.9439 21.6352 12.063 21.5842C11.1822 21.5333 10.3392 21.2017 9.65298 20.6361C9.5379 21.5153 9.19688 22.3479 8.6645 23.0494C8.13212 23.7508 7.42732 24.2962 6.6216 24.6301C5.81589 24.964 4.93792 25.0746 4.07676 24.9507C3.21561 24.8268 2.4019 24.4727 1.71819 23.9245L0 0L18.8167 15.7769Z" fill="white"/>
</svg>
