<svg width="17" height="9" viewBox="0 0 17 9" fill="none" xmlns="http://www.w3.org/2000/svg">
<path d="M16.932 8.58769C16.9714 8.51006 16.9933 8.42447 16.9963 8.33713C17.0165 8.08345 16.954 7.83007 16.8187 7.61627C16.611 7.27358 16.2991 7.0096 15.9305 6.86457C15.4348 6.70334 14.9048 6.68599 14.3999 6.81446C13.8406 6.92239 13.2662 7.14983 12.6275 7.27319C12.3033 7.36553 11.9634 7.38579 11.6309 7.33258C11.2984 7.27938 10.9809 7.15396 10.7 6.9648C10.1369 6.52535 9.85349 5.76594 9.56627 5.01039C9.27364 4.20238 8.85785 3.44653 8.33422 2.77073C7.31793 1.45086 5.89878 0.514778 4.30176 0.110885C3.59922 -0.054503 2.86695 -0.0345994 2.17404 0.168711C1.56488 0.34653 1.01897 0.699896 0.601864 1.18639C0.302749 1.53808 0.105451 1.96771 0.0320339 2.42723C-0.041383 2.88676 0.0119742 3.35805 0.186143 3.78841C0.277345 4.02069 0.413602 4.23179 0.586744 4.40904C0.644129 4.47361 0.710319 4.52943 0.783272 4.5748C0.565573 4.33435 0.39153 4.05633 0.269287 3.75372C0.141396 3.39778 0.0973808 3.01616 0.140794 2.63967C0.192424 2.13953 0.397407 1.66874 0.726574 1.29432C1.12527 0.841268 1.64149 0.512507 2.2156 0.34603C2.87747 0.161606 3.57433 0.150997 4.24129 0.315191C5.78386 0.718336 7.15244 1.63046 8.13392 2.90951C8.64464 3.56489 9.05027 4.2987 9.33573 5.08364C9.63051 5.85461 9.92152 6.62557 10.5602 7.13056C10.8688 7.35563 11.2324 7.48906 11.6108 7.51604C11.9602 7.54493 12.3118 7.52024 12.6539 7.4428C13.3115 7.30017 13.8822 7.05731 14.4226 6.95323C14.8972 6.81727 15.3993 6.81727 15.8739 6.95323C16.223 7.07917 16.5235 7.31551 16.7317 7.62783C16.8648 7.82539 16.9372 8.0589 16.9396 8.29858C16.9509 8.48746 16.9169 8.58769 16.932 8.58769Z" fill="#455A64"/>
</svg>
