<svg width="2" height="2" viewBox="0 0 2 2" fill="none" xmlns="http://www.w3.org/2000/svg">
<path d="M2.10656e-05 0.923972C-0.00166419 1.19005 0.0978244 1.44644 0.27758 1.63928C0.457336 1.83211 0.703362 1.94638 0.96398 1.95807C1.09167 1.96884 1.22018 1.95339 1.34192 1.91262C1.46365 1.87186 1.57615 1.8066 1.67273 1.72073C1.76932 1.63486 1.84803 1.53011 1.90424 1.41267C1.96044 1.29523 1.99301 1.16748 1.99998 1.03699C2.00166 0.770904 1.90218 0.514509 1.72242 0.321674C1.54266 0.12884 1.29662 0.0145746 1.036 0.00288397C0.908468 -0.00710099 0.780257 0.0089013 0.658846 0.0499627C0.537435 0.0910241 0.425264 0.156326 0.328842 0.242054C0.23242 0.327782 0.153687 0.432224 0.0972353 0.549299C0.0407831 0.666374 0.00773223 0.79374 2.10656e-05 0.923972Z" fill="#263238"/>
</svg>
