<svg width="14" height="6" viewBox="0 0 14 6" fill="none" xmlns="http://www.w3.org/2000/svg">
<path d="M13.9243 5.51188C13.9186 5.44594 13.9186 5.37961 13.9243 5.31367C13.9243 5.17263 13.9243 4.98585 13.9243 4.75333C13.9584 4.06716 13.884 3.37985 13.7039 2.71782C13.5715 2.26578 13.3531 1.84479 13.0611 1.47898C12.7328 1.05688 12.2812 0.752462 11.7718 0.609887C11.2028 0.476512 10.609 0.501526 10.0527 0.682312C9.45121 0.878589 8.87428 1.14596 8.33368 1.47898C7.78486 1.81654 7.21428 2.11582 6.62583 2.37476C6.06503 2.59674 5.47077 2.71797 4.86941 2.73307C4.32562 2.74846 3.78266 2.68036 3.25873 2.53105C2.80473 2.39987 2.36708 2.21568 1.95449 1.98214C1.35813 1.64016 0.832662 1.18316 0.40734 0.636572C0.290473 0.490527 0.185488 0.334997 0.0934269 0.171531C0.0568397 0.11762 0.0255464 0.0601668 0 0C0.0446599 0.0471338 0.0835585 0.0996062 0.115848 0.15628C0.217167 0.312103 0.328266 0.46108 0.448448 0.602267C0.885713 1.12542 1.41246 1.56326 2.00307 1.89447C2.41125 2.1167 2.84243 2.29185 3.28863 2.41669C3.80249 2.55719 4.334 2.61885 4.86567 2.59965C5.4521 2.58098 6.03102 2.45979 6.57725 2.24134C7.15748 1.98319 7.7205 1.6865 8.26267 1.35319C8.81294 1.01394 9.40145 0.743876 10.0154 0.548896C10.5953 0.362651 11.214 0.340258 11.8054 0.484096C12.3392 0.636774 12.8116 0.958461 13.1545 1.40275C13.4488 1.78466 13.6683 2.22078 13.801 2.68733C13.9746 3.36204 14.0353 4.06182 13.9804 4.75714C13.9804 5.0011 13.9468 5.18788 13.9355 5.31748C13.9412 5.38249 13.9374 5.448 13.9243 5.51188Z" fill="#455A64"/>
</svg>
