<svg width="3" height="3" viewBox="0 0 3 3" fill="none" xmlns="http://www.w3.org/2000/svg">
<path d="M2.91057 1.11803C2.82205 1.09695 2.73664 1.0641 2.65652 1.02031C2.55259 0.968869 2.4393 0.940042 2.32386 0.935654C2.20842 0.931266 2.09335 0.951414 1.98596 0.994824C1.91945 1.03094 1.8638 1.08479 1.82493 1.15062C1.78606 1.21646 1.76542 1.29182 1.76522 1.36867C1.75722 1.56103 1.77262 1.75367 1.81104 1.94218C1.86489 2.17989 1.83077 2.42951 1.71524 2.64313C1.63983 2.75121 1.54066 2.83979 1.42566 2.90175C1.31067 2.96372 1.18305 2.99736 1.05302 2.99998C0.925613 3.00105 0.799323 2.97561 0.681881 2.92521C0.564439 2.87481 0.458306 2.80051 0.369971 2.70685C0.202495 2.53961 0.0879146 2.32508 0.040952 2.09086C-0.0136507 1.7134 -0.0136507 1.32981 0.040952 0.952345C0.070469 0.69687 0.142284 0.448354 0.253354 0.217401C0.340817 0.055969 0.424121 -0.00775182 0.428286 0.000744598C0.432451 0.00924101 0.378311 0.0857095 0.315838 0.247141C0.230344 0.478958 0.17842 0.722245 0.161725 0.969335C0.12459 1.333 0.134395 1.70006 0.190883 2.06113C0.231445 2.26638 0.336965 2.45236 0.491214 2.59051C0.645464 2.72865 0.839917 2.81132 1.0447 2.8258C1.14744 2.8235 1.24827 2.797 1.33931 2.74836C1.43035 2.69972 1.50911 2.63027 1.56947 2.54542C1.66286 2.3672 1.69092 2.16084 1.6486 1.96341C1.61398 1.7601 1.60418 1.5532 1.61944 1.34743C1.62614 1.24935 1.65819 1.15484 1.71233 1.07351C1.76647 0.992169 1.84076 0.926911 1.92766 0.884373C2.05029 0.835431 2.18255 0.816843 2.31359 0.830136C2.44463 0.843428 2.57072 0.888218 2.6815 0.960837C2.83977 1.0458 2.9189 1.10953 2.91057 1.11803Z" fill="#EB996E"/>
</svg>
