<svg width="11" height="15" viewBox="0 0 11 15" fill="none" xmlns="http://www.w3.org/2000/svg">
<path d="M3.14689 14.0929C4.62027 14.4686 11 14.4686 11 14.4686V6.76281C11 6.76281 8.22268 5.55677 7.45652 4.85044C6.69037 4.1441 4.50977 0 4.50977 0C4.12065 0.239571 3.8148 0.59736 3.63512 1.0232C3.45544 1.44903 3.41095 1.92156 3.50787 2.3745C3.87621 4.06896 4.55397 4.27559 4.6129 4.94811C4.6129 4.94811 4.67184 5.12471 4.67184 5.13222C4.82286 6.0715 3.93515 6.90182 3.93515 6.90182C3.64336 6.67698 3.3156 6.50537 2.9664 6.39461C1.62563 6.23305 0.019645 7.21366 0.019645 7.7622C0.019645 7.7622 -0.0245563 9.23874 0.019645 9.46041C0.0638464 9.68208 0.756334 9.97138 0.756334 9.97138C0.756334 9.97138 0.542694 10.9557 0.756334 11.3953C0.996926 11.7249 1.31833 11.984 1.68825 12.1467C1.68825 12.1467 2.31443 13.875 3.14689 14.0929Z" fill="#B78876"/>
</svg>
