<svg width="33" height="1" viewBox="0 0 33 1" fill="none" xmlns="http://www.w3.org/2000/svg">
<path d="M33 0.570829C32.8888 0.580074 32.777 0.580074 32.6657 0.570829H31.7042L28.1698 0.521023L16.5038 0.314141L4.8377 0.114928L1.30332 0.0574641L0.341795 0.0383016C0.227534 0.0421321 0.113162 0.035727 0 0.0191508C0 0.0191508 0.116441 0.0191555 0.334287 0H1.29582C2.1334 0 3.33906 0 4.83394 0C7.81994 0 11.944 0.0574608 16.5 0.137914C21.056 0.218367 25.1801 0.321811 28.1661 0.406095L31.7004 0.521023L32.6582 0.563171C32.7722 0.558776 32.8863 0.561331 33 0.570829Z" fill="#455A64"/>
</svg>
