<svg width="3" height="2" viewBox="0 0 3 2" fill="none" xmlns="http://www.w3.org/2000/svg">
<path d="M0.0923189 0.609654C0.260735 0.394197 0.480281 0.226158 0.730169 0.121444C0.980057 0.01673 1.25201 -0.0211898 1.52028 0.0112754C1.71575 0.0289163 1.90567 0.0869495 2.07845 0.181847C2.25124 0.276745 2.40328 0.406523 2.52532 0.563272C2.64522 0.713032 2.71624 0.897253 2.72847 1.0902C2.7407 1.28314 2.69353 1.47517 2.59354 1.63943C2.45055 1.80014 2.26413 1.91409 2.05776 1.96692C1.85139 2.01975 1.63431 2.00909 1.43387 1.9363C1.01817 1.79006 0.634896 1.56149 0.30606 1.2637C0.205647 1.19079 0.119309 1.09958 0.0513916 0.99466C0.0179402 0.945659 0 0.887381 0 0.82767C0 0.767959 0.0179402 0.709681 0.0513916 0.660679" fill="#FCA465"/>
</svg>
