<svg width="2" height="2" viewBox="0 0 2 2" fill="none" xmlns="http://www.w3.org/2000/svg">
<path d="M6.56181e-05 0.925447C-0.00292434 1.19145 0.0963702 1.44805 0.276666 1.64027C0.456962 1.83248 0.703904 1.945 0.964567 1.9537C1.09216 1.96352 1.22039 1.94735 1.34179 1.90612C1.4632 1.86489 1.57534 1.79943 1.6717 1.71356C1.76806 1.62769 1.8467 1.52312 1.90305 1.40594C1.9594 1.28877 1.99233 1.16133 1.99992 1.03104C2.00291 0.765043 1.90362 0.508437 1.72332 0.316223C1.54302 0.124009 1.29607 0.011491 1.03541 0.00278657C0.907818 -0.00702891 0.779585 0.00914532 0.658183 0.0503741C0.536781 0.0916028 0.424634 0.157059 0.328276 0.242929C0.231918 0.328799 0.153283 0.433372 0.0969332 0.550548C0.0405839 0.667723 0.00765518 0.795163 6.56181e-05 0.925447Z" fill="#263238"/>
</svg>
