<svg width="101" height="124" viewBox="0 0 101 124" fill="none" xmlns="http://www.w3.org/2000/svg">
<path d="M52.0372 80.0534C52.4056 79.9745 55.4122 94.0189 55.018 99.4796C54.6237 104.94 52.0372 123.927 52.0372 123.927H39.6425L37.406 97.0593L37.8297 123.927H21.172C21.172 123.927 17.3143 105.463 18.0033 99.8742C18.6923 94.2857 22.3547 79.5799 22.3547 79.5799L52.0372 80.0534Z" fill="#263238"/>
<path d="M38.6552 83.2892C38.6795 83.4622 38.6881 83.6371 38.681 83.8116C38.681 84.1499 38.681 84.6384 38.681 85.2435C38.6552 86.4537 38.5779 88.1223 38.4268 89.9601C38.2757 91.7978 38.0584 93.4552 37.8999 94.6503C37.8152 95.2479 37.7378 95.7327 37.6788 96.0634C37.6563 96.2379 37.6193 96.4101 37.5683 96.5783C37.5623 96.402 37.5747 96.2257 37.6052 96.0521C37.6457 95.6763 37.701 95.2028 37.7673 94.6315C37.9036 93.4326 38.0841 91.7753 38.2352 89.9413C38.3863 88.1073 38.4858 86.4424 38.5447 85.2397C38.5779 84.6647 38.6 84.1837 38.6221 83.8116C38.6152 83.6368 38.6263 83.4617 38.6552 83.2892Z" fill="#455A64"/>
<path d="M40.8917 84.4243C40.8917 84.4243 40.9911 84.3867 41.168 84.4243C41.4184 84.4717 41.6456 84.6041 41.8128 84.8001C41.9283 84.9412 42.0113 85.1068 42.056 85.2849C42.1032 85.4952 42.0878 85.715 42.0117 85.9163C41.9245 86.1445 41.773 86.3412 41.5763 86.4816C41.3795 86.6221 41.1464 86.7 40.9064 86.7055C40.6645 86.6936 40.4318 86.6071 40.239 86.4575C40.0463 86.3078 39.9026 86.1021 39.8268 85.8674C39.7574 85.664 39.7497 85.444 39.8047 85.236C39.8548 85.0583 39.9486 84.8965 40.0774 84.7663C40.2546 84.5721 40.4992 84.4561 40.759 84.4431C40.8524 84.4303 40.9472 84.4502 41.028 84.4994C41.028 84.4994 40.9285 84.4994 40.7664 84.4994C40.5362 84.5382 40.3272 84.6595 40.1769 84.8414C40.0628 84.9662 39.9852 85.1209 39.9527 85.2882C39.9201 85.4555 39.934 85.6288 39.9926 85.7885C40.061 85.9846 40.1845 86.1558 40.3476 86.2808C40.5108 86.4058 40.7064 86.479 40.9101 86.4913C41.1131 86.4855 41.3101 86.4199 41.4774 86.3026C41.6448 86.1852 41.7753 86.0211 41.8533 85.8299C41.9155 85.6712 41.9353 85.4985 41.9107 85.3295C41.8861 85.1605 41.818 85.0012 41.7133 84.8678C41.5727 84.677 41.3787 84.5341 41.1569 84.4581C40.9911 84.4393 40.8917 84.4393 40.8917 84.4243Z" fill="#455A64"/>
<path d="M53.8832 86.7805C53.7822 86.839 53.6728 86.8808 53.559 86.9045C53.2545 86.9934 52.9423 87.0526 52.6268 87.0812C51.5759 87.1806 50.5183 86.9886 49.5656 86.5256C48.6128 86.0625 47.8004 85.3455 47.2142 84.4504C47.0381 84.1886 46.8864 83.9105 46.761 83.6199C46.7058 83.5143 46.6684 83.3999 46.6505 83.2816C46.6837 83.2816 46.8642 83.7364 47.3284 84.3828C47.9278 85.2292 48.727 85.9076 49.6519 86.355C50.5769 86.8024 51.5976 87.0044 52.6194 86.9421C53.3932 86.9008 53.8759 86.7429 53.8832 86.7805Z" fill="#455A64"/>
<path d="M25.5422 19.4334C24.6026 22.921 23.1804 25.7209 21.795 27.1227C20.4096 28.5245 18.9248 30.1669 18.9764 32.1587C18.9948 32.9404 19.249 33.771 18.9137 34.4738C18.4789 35.387 17.322 35.6012 16.4525 36.0823C15.8241 36.479 15.3118 37.0406 14.9689 37.7083C14.6261 38.376 14.4653 39.1253 14.5033 39.8781C14.6076 41.3953 15.2648 42.8178 16.3456 43.8655C17.4252 44.9742 19.1348 45.7447 20.476 44.993C21.2829 44.5345 21.7434 43.6438 22.1524 42.7982C24.2649 38.4161 26.1759 33.9414 27.8855 29.3739" fill="#263238"/>
<path d="M34.1859 4.49833C35.3844 3.14322 36.9588 2.19226 38.6999 1.77187C40.441 1.35148 42.2663 1.48157 43.9332 2.14485C45.6001 2.80813 47.0295 3.97317 48.0316 5.48511C49.0337 6.99705 49.5608 8.78427 49.543 10.6092C49.5172 12.943 48.6219 15.3934 49.543 17.5356C50.1804 19.0388 51.6616 20.2001 51.8643 21.8425C52.1037 23.7441 50.5084 25.4692 50.5894 27.3821C50.6447 28.6336 51.4148 29.7385 52.299 30.6029C53.1833 31.4673 54.2113 32.1888 55.0219 33.1246C57.2731 35.7366 57.4168 39.8631 55.7146 42.8734C54.0123 45.8838 50.7221 47.7779 47.336 48.1875C43.9499 48.5972 40.4975 47.6464 37.4873 46.0003C35.5345 44.9217 33.6996 43.4935 32.5389 41.5618C31.3783 39.6301 30.9804 37.1271 31.8978 35.0639" fill="#263238"/>
<path d="M41.3891 33.5981C41.3891 33.5981 49.0308 35.9019 49.7751 37.1346C50.5194 38.3673 52.9217 52.8477 52.9217 52.8477L48.235 69.9137C48.235 69.9137 52.1148 76.2839 52.2879 79.5047C43.6146 85.2134 33.8285 83.6162 23.5818 79.0424L22.8449 62.3672L21.8722 35.729L28.1801 33.4741L41.3891 33.5981Z" fill="#DDACF5"/>
<path d="M49.8857 73.3488C49.7925 73.3571 49.6988 73.3571 49.6056 73.3488L48.8024 73.2924L45.8548 73.0519L36.1314 72.1875L26.4079 71.263L23.4603 70.9623L22.6608 70.8683C22.5674 70.8625 22.4749 70.8474 22.3844 70.8232C22.4775 70.8142 22.5713 70.8142 22.6644 70.8232L23.4677 70.8759L26.4153 71.1164L36.1424 71.9845L45.8659 72.9053L48.8135 73.2097L49.613 73.2999C49.7049 73.3095 49.7961 73.3259 49.8857 73.3488Z" fill="#FCA465"/>
<path d="M40.9175 54.5653C40.9175 54.6179 37.5609 54.663 33.4195 54.663C29.2781 54.663 25.9215 54.6179 25.9215 54.5653C25.9215 54.5127 29.2781 54.4676 33.4195 54.4676C37.5609 54.4676 40.9175 54.5089 40.9175 54.5653Z" fill="#FCA465"/>
<path d="M51.0094 43.1214C50.8138 43.1592 50.6153 43.1793 50.4162 43.1816L48.7913 43.2755C47.417 43.3544 45.5232 43.4672 43.434 43.6325C41.3449 43.7979 39.4548 43.9745 38.0878 44.1136L36.4666 44.2714C36.269 44.3004 36.0693 44.3117 35.8697 44.3053C36.0631 44.2533 36.2602 44.2168 36.4592 44.1963C36.8277 44.1362 37.3914 44.061 38.0731 43.9745C39.4363 43.8017 41.3265 43.5987 43.4193 43.4371C45.5121 43.2755 47.4096 43.1778 48.784 43.1365C49.473 43.1365 50.0293 43.1064 50.4125 43.1064C50.6116 43.0954 50.8112 43.1004 51.0094 43.1214Z" fill="#FCA465"/>
<path d="M49.775 37.1459L57.4462 58.3686L62.6045 47.9132L69.3324 49.3188L65.46 65.7986C65.2621 67.2316 64.633 68.5666 63.6595 69.6195C62.6861 70.6723 61.4163 71.391 60.0253 71.6764C58.8616 71.9203 57.6557 71.8514 56.526 71.4765C55.3962 71.1016 54.3814 70.4336 53.5811 69.538L51.1825 66.8433L49.775 37.1459Z" fill="#DDACF5"/>
<path d="M57.288 71.7778C57.2513 71.6024 57.2328 71.4235 57.2327 71.2442C57.2069 70.9022 57.1848 70.4061 57.1627 69.7897C57.1222 68.5608 57.1037 66.8621 57.1627 64.983C57.2216 63.1039 57.3322 61.4089 57.4427 60.1875C57.498 59.5749 57.5496 59.0788 57.5938 58.7368C57.6076 58.5593 57.6359 58.3833 57.6785 58.2107C57.6979 58.388 57.6979 58.567 57.6785 58.7443C57.6564 59.1202 57.6269 59.6125 57.5901 60.195C57.5127 61.4239 57.4206 63.1151 57.3653 64.9905C57.3101 66.8658 57.3064 68.5608 57.3138 69.786C57.3138 70.3723 57.3138 70.8608 57.3138 71.2442C57.32 71.4225 57.3114 71.601 57.288 71.7778Z" fill="#FCA465"/>
<path d="M67.199 58.827C67.1805 58.8796 65.2941 58.1956 62.9876 57.3012C60.681 56.4067 58.8241 55.64 58.8425 55.5912C58.8609 55.5423 60.7474 56.2226 63.0539 57.117C65.3604 58.0115 67.2174 58.7782 67.199 58.827Z" fill="#FCA465"/>
<path d="M70.9355 46.8909L67.7079 49.3187L64.1228 48.4205L64.985 47.4509L70.9355 46.8909Z" fill="#FFBE9D"/>
<path d="M82.6041 17.3552L56.4882 28.8967L56.6172 36.6161L53.6622 39.773L63.6399 48.8678L66.5543 45.5418L74.3176 44.4331L82.6041 17.3552Z" fill="#FAFAFA"/>
<path d="M82.6039 17.3552C82.3755 18.1069 79.2252 28.5209 74.4022 44.4594V44.5158H74.3469L66.5836 45.6433L66.6389 45.6132L63.7097 48.9317L63.6471 49.0069L63.5771 48.9392L58.4814 44.2978L53.5994 39.8444L53.5257 39.7767L53.592 39.7053L56.5396 36.5484L56.5138 36.6161C56.4733 33.944 56.4328 31.3546 56.3922 28.8967V28.8366L56.4475 28.814L82.6076 17.3552L56.5249 28.9794L56.5765 28.8929C56.6207 31.3621 56.6649 33.944 56.7091 36.6123V36.6536L56.6833 36.6799L53.7357 39.8406V39.7015L58.6214 44.1513L63.7097 48.7964H63.5734L66.4915 45.4742L66.5136 45.4479H66.5468L74.3138 44.3467L74.2401 44.4068C79.1552 28.4983 82.3681 18.1106 82.6039 17.3552Z" fill="#263238"/>
<path d="M72.0077 36.2627C71.4677 36.879 70.7606 37.3181 69.9759 37.5246C69.1912 37.731 68.3641 37.6954 67.5992 37.4224C66.8344 37.1493 66.166 36.651 65.6788 35.9905C65.1916 35.3301 64.9073 34.537 64.8619 33.7117C64.8166 32.8864 65.0122 32.066 65.424 31.3541C65.8358 30.6422 66.4454 30.0708 67.1756 29.7123C67.9057 29.3538 68.7237 29.2242 69.5262 29.3399C70.3286 29.4556 71.0793 29.8114 71.6835 30.3623C72.4935 31.1009 72.9827 32.1375 73.0435 33.244C73.1043 34.3505 72.7317 35.4363 72.0077 36.2627Z" fill="#263238"/>
<path d="M82.6041 17.3552C82.6446 17.389 79.6196 21.027 75.8504 25.4805C72.0811 29.9339 68.9935 33.5118 68.9529 33.4779C68.9124 33.4441 71.9374 29.8062 75.7067 25.3527C79.4759 20.8992 82.5636 17.3214 82.6041 17.3552Z" fill="#263238"/>
<path d="M2.17857 109.39C0.892022 108.218 0.112812 106.574 0.0113155 104.817C-0.0901815 103.061 0.494292 101.335 1.63694 100.017L50.7185 43.3469L60.453 52.2238L11.3899 108.837C10.2396 110.156 8.6234 110.954 6.89629 111.058C5.16919 111.161 3.47239 110.562 2.17857 109.39Z" fill="#FCA465"/>
<path d="M53.4938 38.5776L49.9385 42.6351L61.3886 53.0738L64.944 49.0163L53.4938 38.5776Z" fill="#FCA465"/>
<path d="M84.3818 17.3098L82.2015 15.4464L80.3747 17.6703L82.5549 19.5337L84.3818 17.3098Z" fill="#FCA465"/>
<path d="M100.389 32.3843C100.293 32.497 91.9628 25.533 81.7787 16.829C71.5947 8.125 63.4151 0.973118 63.5072 0.860372C63.5993 0.747625 71.9337 7.70783 82.1177 16.4156C92.3018 25.1234 100.481 32.2715 100.389 32.3843Z" fill="#FCA465"/>
<path d="M100.802 32.7375C100.695 32.8669 100.553 32.961 100.393 33.008C100.234 33.055 100.064 33.0528 99.9059 33.0016C99.7477 32.9504 99.6079 32.8526 99.5042 32.7204C99.4004 32.5883 99.3374 32.4277 99.323 32.2591C99.3086 32.0904 99.3436 31.9212 99.4234 31.7727C99.5032 31.6243 99.6244 31.5033 99.7715 31.425C99.9187 31.3468 100.085 31.3147 100.25 31.3329C100.415 31.3512 100.571 31.4188 100.699 31.5274C100.784 31.5998 100.854 31.6886 100.905 31.7887C100.956 31.8887 100.987 31.9982 100.997 32.1106C101.006 32.2231 100.994 32.3363 100.961 32.4439C100.927 32.5515 100.873 32.6513 100.802 32.7375Z" fill="#FCA465"/>
<path d="M64.1518 1.41288C64.0446 1.54354 63.9019 1.63882 63.7416 1.68665C63.5813 1.73448 63.4106 1.7327 63.2513 1.68155C63.092 1.63039 62.9512 1.53216 62.8466 1.3993C62.7421 1.26643 62.6786 1.10491 62.6641 0.935185C62.6496 0.765464 62.6849 0.595181 62.7654 0.445905C62.8458 0.296628 62.9679 0.175076 63.1162 0.0966405C63.2645 0.0182054 63.4322 -0.0135809 63.5982 0.00530592C63.7642 0.0241927 63.921 0.0929036 64.0486 0.202736C64.2193 0.349512 64.3259 0.559265 64.3453 0.786074C64.3646 1.01288 64.295 1.23827 64.1518 1.41288Z" fill="#FCA465"/>
<path opacity="0.3" d="M50.7184 43.3469L60.4529 52.2238L59.1413 53.7384L50.2505 43.8881L50.7184 43.3469Z" fill="black"/>
<path opacity="0.5" d="M56.6321 41.4415V48.5446L58.0506 50.0291V42.7306L56.6321 41.4415Z" fill="white"/>
<path d="M68.3157 38.1269L71.8896 39.5813L72.656 42.5202L70.9353 46.891L64.6201 47.8306L66.4623 45.9026L66.2228 44.2227C66.2228 44.2227 64.4616 43.659 64.4174 43.3846C64.3732 43.1103 64.6348 42.1858 64.9075 42.1407C65.1801 42.0956 67.0261 42.7984 67.0261 42.7984C67.0261 42.7984 64.8375 41.032 64.9001 40.7501C64.9627 40.4683 65.1949 39.7392 65.637 39.6603C66.0791 39.5813 69.6052 41.2763 69.6052 41.2763L70.1763 42.6104L70.6774 40.4795C70.6774 40.4795 67.5419 39.5813 68.3157 38.1269Z" fill="#FFBE9D"/>
<path d="M67.8662 45.0119C67.8883 45.0119 67.9547 44.8879 67.9878 44.6361C68.0254 44.3248 67.9888 44.009 67.881 43.7153C67.7748 43.4214 67.6018 43.1573 67.3762 42.9449C67.1993 42.787 67.063 42.7306 67.052 42.7494C67.3189 43.058 67.5399 43.405 67.7078 43.7792C67.8212 44.1796 67.8746 44.5952 67.8662 45.0119Z" fill="#EB996E"/>
<path d="M69.5648 44.3767C69.4992 44.0617 69.4524 43.7429 69.4248 43.4221C69.4089 43.0624 69.3483 42.7063 69.2442 42.3623C69.1736 42.1536 69.0621 41.9618 68.9163 41.7986C68.7477 41.6344 68.5485 41.5066 68.3305 41.4227C67.4756 41.107 66.7056 40.8515 66.1418 40.6711C65.8444 40.5525 65.5357 40.4656 65.2207 40.4118C65.5022 40.5647 65.797 40.6905 66.1013 40.7876C66.6503 41.0056 67.4241 41.2837 68.2604 41.5956C68.4552 41.6665 68.6334 41.7778 68.7837 41.9226C68.9161 42.0655 69.0188 42.2343 69.0858 42.4187C69.1924 42.7477 69.2616 43.0882 69.2921 43.4334C69.3037 43.7662 69.3974 44.0907 69.5648 44.3767Z" fill="#EB996E"/>
<path d="M70.3862 43.719C70.4352 43.4799 70.4263 43.2322 70.3604 42.9974C70.2977 42.6216 70.2056 42.3021 70.1577 42.3097C70.1098 42.3172 70.1172 42.6404 70.1798 43.0312C70.2425 43.4221 70.342 43.7453 70.3862 43.719Z" fill="#EB996E"/>
<path d="M43.5741 69.7597C43.5741 69.7597 49.3035 67.7528 49.4399 67.6889C49.5762 67.625 53.4928 65.7647 53.1538 64.6823C53.1538 64.6823 54.2592 63.7841 53.9239 63.2805L52.3543 63.9532C52.3543 63.9532 54.565 62.4838 54.1966 61.1646C54.1966 61.1646 54.4287 60.7174 54.1966 60.4393C53.9644 60.1612 52.8112 60.9993 51.9564 61.5254L50.3057 62.2019C49.5854 62.4976 48.7885 62.5373 48.0434 62.3146C47.8723 62.2583 47.7273 62.1401 47.6357 61.9823C47.544 61.8245 47.5121 61.6379 47.546 61.4578C47.8592 60.1572 47.8184 58.7941 47.4281 57.5154C47.4281 57.5154 47.0191 57.662 46.7391 58.5639C46.3707 59.7177 45.2653 60.6084 44.8305 61.3676C44.5947 61.8035 44.2152 62.495 43.9389 63.0137C43.8237 63.2235 43.6685 63.4078 43.4825 63.5556C43.2964 63.7034 43.0833 63.8117 42.8556 63.8743L43.2498 66.9185L43.5741 69.7597Z" fill="#FFBE9D"/>
<path d="M49.7863 64.2464C49.8554 64.2354 49.9224 64.2139 49.9852 64.1825C50.1105 64.1374 50.291 64.0623 50.5084 63.9645C51.0762 63.7055 51.6232 63.4014 52.1444 63.0551C52.6639 62.7097 53.1567 62.3239 53.6182 61.9013C53.795 61.7359 53.935 61.6006 54.0271 61.5029C54.0775 61.4536 54.1232 61.3995 54.1635 61.3413C54.1038 61.3774 54.0493 61.4217 54.0014 61.4729L53.574 61.8487C53.1043 62.2531 52.6123 62.6295 52.1001 62.9761C51.5796 63.3161 51.0408 63.626 50.4863 63.9044L49.9779 64.1487C49.9097 64.1716 49.8451 64.2045 49.7863 64.2464Z" fill="#EB996E"/>
<path d="M49.8858 65.4115C50.0324 65.3824 50.1748 65.3344 50.3095 65.2686C50.6394 65.128 50.9583 64.9622 51.2638 64.7726C51.5682 64.5838 51.8621 64.378 52.1444 64.1562C52.2688 64.0716 52.3826 63.9719 52.4834 63.8593C52.4834 63.8368 51.9233 64.2351 51.2122 64.6899C50.8437 64.9079 50.5269 65.0657 50.28 65.2048C50.1428 65.2615 50.0109 65.3307 49.8858 65.4115Z" fill="#EB996E"/>
<path d="M49.8379 66.8094C50.0233 66.7566 50.2034 66.6862 50.3758 66.5989C50.7979 66.4015 51.2065 66.1755 51.5991 65.9224C51.9912 65.6694 52.3677 65.392 52.7265 65.0919C52.8819 64.9742 53.0251 64.8407 53.1539 64.6935C52.9904 64.7964 52.8341 64.9107 52.686 65.0355C52.4023 65.2535 52.0044 65.5466 51.5475 65.8398C51.1589 66.0921 50.758 66.3242 50.3463 66.535C50.1707 66.6141 50.0008 66.7058 49.8379 66.8094Z" fill="#EB996E"/>
<path d="M43.5742 69.7596L22.3071 76.2839C19.9089 75.1762 17.9076 73.3356 16.5801 71.0167C15.2526 68.6978 14.6646 66.0154 14.8975 63.3406C15.5681 55.6739 16.4524 45.5906 16.714 43.0463C17.1488 38.8258 21.8944 35.7178 21.8944 35.7178C28.416 36.15 26.9717 49.3075 26.9717 49.3075L24.3446 64.4418L42.8373 63.6901L43.5742 69.7596Z" fill="#DDACF5"/>
<path d="M24.3444 64.453C24.3374 64.251 24.3461 64.0486 24.3702 63.848C24.396 63.4721 24.4587 62.9009 24.536 62.2056C24.7018 60.8264 24.9892 58.9247 25.3724 56.8351C25.7556 54.7456 26.1351 52.8627 26.4372 51.506C26.5846 50.8258 26.7136 50.2771 26.8057 49.9012C26.8418 49.7019 26.8973 49.5068 26.9715 49.3187C26.9552 49.5199 26.9244 49.7197 26.8794 49.9163C26.7983 50.3334 26.6952 50.8784 26.5699 51.5323C26.3046 52.8965 25.9398 54.7832 25.5603 56.869C25.1808 58.9548 24.8713 60.8527 24.6687 62.2244C24.5803 62.8896 24.5029 63.4383 24.4439 63.8555C24.4282 64.0573 24.395 64.2573 24.3444 64.453Z" fill="#263238"/>
<path d="M42.8371 63.6977C42.7726 63.7176 42.7056 63.7278 42.6382 63.7278L42.0597 63.7804C41.5549 63.8179 40.8291 63.863 39.9301 63.9119C38.132 64.0059 35.645 64.0923 32.9 64.175L25.8699 64.3779L23.7403 64.4493H23.1618C23.0947 64.4599 23.0263 64.4599 22.9592 64.4493C23.0237 64.4294 23.0907 64.4193 23.1581 64.4193L23.7366 64.3666C24.2414 64.3291 24.9672 64.2802 25.8663 64.2351C27.6643 64.1411 30.1513 64.0547 32.8963 63.972L39.9227 63.7691L42.056 63.6977H42.6345C42.7017 63.6871 42.77 63.6871 42.8371 63.6977Z" fill="#263238"/>
<path d="M25.1515 58.7143C25.0218 58.732 24.8905 58.732 24.7609 58.7143L23.6998 58.6317C22.8044 58.564 21.5701 58.4738 20.2031 58.4174C18.8362 58.3611 17.6019 58.3385 16.7029 58.3348H15.6417C15.511 58.3418 15.3799 58.3329 15.2512 58.3085C15.3714 58.2761 15.4952 58.2597 15.6196 58.2596C15.8702 58.237 16.2349 58.222 16.6844 58.207C17.5834 58.1769 18.8251 58.1732 20.1958 58.2333C21.5664 58.2934 22.8007 58.3986 23.6961 58.5076C24.1419 58.5565 24.4993 58.6091 24.7498 58.6467C24.8858 58.6536 25.0206 58.6763 25.1515 58.7143Z" fill="#FCA465"/>
<path d="M26.9716 48.274C26.9716 48.3266 24.5582 48.274 21.5885 48.1387C18.6188 48.0034 16.2128 47.8681 16.2165 47.8117C16.2202 47.7553 18.6262 47.8117 21.5959 47.9432C24.5656 48.0748 26.9716 48.2176 26.9716 48.274Z" fill="#FCA465"/>
<path d="M16.8907 71.2854C16.9437 71.1619 17.0118 71.0458 17.0933 70.9397C17.237 70.7217 17.4618 70.4173 17.7344 70.049C18.4737 69.0957 19.2869 68.2047 20.1662 67.3844C21.0471 66.5653 21.9922 65.8212 22.9923 65.1596C23.3607 64.9078 23.6923 64.7123 23.9171 64.5921C24.0313 64.5161 24.1553 64.4566 24.2855 64.4154C24.2855 64.4417 23.8213 64.7424 23.077 65.2761C21.1322 66.6542 19.3753 68.2895 17.8524 70.1392C17.2555 70.8457 16.9165 71.3042 16.8907 71.2854Z" fill="#FCA465"/>
<path d="M32.1484 73.3487C32.0968 73.3487 31.7394 71.3231 31.3488 68.8013C30.9583 66.2795 30.6856 64.2276 30.7372 64.22C30.7888 64.2125 31.1498 66.2495 31.5404 68.7712C31.931 71.293 32.2036 73.3412 32.1484 73.3487Z" fill="#FCA465"/>
<g opacity="0.3">
<path d="M22.178 76.2839L45.9947 68.9253C44.2114 71.3231 40.7332 73.5554 38.1099 74.9385C35.4865 76.3215 32.6826 77.2911 29.8897 78.2607C28.3717 78.7869 26.8168 79.3205 25.214 79.3055C23.6113 79.2905 22.0453 78.8207 21.2016 77.4264L22.178 76.2839Z" fill="black"/>
</g>
<path d="M26.2827 13.8337C26.4949 13.2981 26.5238 12.7051 26.3647 12.1506C26.2056 11.5961 25.8677 11.1126 25.4058 10.7783C24.9297 10.4648 24.3692 10.3118 23.8033 10.3408C23.2373 10.3698 22.6947 10.5794 22.2518 10.9399C21.8226 11.3152 21.5083 11.8084 21.3463 12.3608C21.1843 12.9132 21.1814 13.5015 21.338 14.0555C21.5351 14.7201 21.948 15.2966 22.5088 15.6902C23.0697 16.0837 23.7451 16.271 24.4241 16.2211C25.1031 16.1713 25.7453 15.8873 26.2451 15.4159C26.7449 14.9444 27.0726 14.3136 27.1743 13.627" fill="#263238"/>
<path d="M29.8419 7.48986V9.26374L29.4735 35.8381C29.4293 38.9235 31.9974 41.419 35.2361 41.4378C38.5043 41.4603 41.2308 38.9536 41.3266 35.8381C41.4224 32.5684 41.5845 29.1259 41.5845 29.1259C41.5845 29.1259 45.7333 28.5434 46.7429 23.0714C47.244 20.3505 47.2292 15.8632 47.1113 12.1726C47.0848 11.3895 46.9031 10.6199 46.5773 9.91026C46.2514 9.20063 45.7881 8.56562 45.2153 8.04348C44.6424 7.52133 43.9719 7.12285 43.2441 6.87205C42.5163 6.62125 41.7462 6.52331 40.9803 6.58413L29.8419 7.48986Z" fill="#FFBE9D"/>
<path d="M45.2615 15.3934C45.2586 15.5771 45.1853 15.7524 45.0572 15.8817C44.929 16.011 44.7564 16.0839 44.5762 16.0849C44.4879 16.0894 44.3996 16.0759 44.3165 16.0451C44.2333 16.0143 44.1571 15.9669 44.0922 15.9056C44.0273 15.8443 43.9751 15.7705 43.9386 15.6883C43.9021 15.6061 43.8822 15.5173 43.8798 15.4272C43.8845 15.244 43.9585 15.0698 44.0862 14.9409C44.2139 14.8121 44.3855 14.7385 44.5651 14.7357C44.6536 14.7306 44.7421 14.7438 44.8254 14.7743C44.9088 14.8049 44.9852 14.8523 45.0502 14.9137C45.1152 14.9751 45.1674 15.0492 45.2037 15.1316C45.24 15.214 45.2597 15.303 45.2615 15.3934Z" fill="#263238"/>
<path d="M46.0721 14.4988C45.9837 14.589 45.4678 14.1756 44.7273 14.1568C43.9867 14.1381 43.4266 14.5026 43.3493 14.4086C43.2719 14.3147 43.4008 14.2019 43.644 14.0328C43.9721 13.815 44.3582 13.7061 44.7494 13.7209C45.1353 13.7289 45.5091 13.8603 45.8179 14.0967C46.0426 14.2884 46.1126 14.4575 46.0721 14.4988Z" fill="#263238"/>
<path d="M37.9848 15.3181C37.981 15.502 37.9075 15.6771 37.7797 15.8068C37.6518 15.9365 37.4797 16.0105 37.2995 16.0134C37.2112 16.018 37.1229 16.0044 37.0397 15.9736C36.9566 15.9429 36.8804 15.8954 36.8155 15.8342C36.7506 15.7729 36.6984 15.699 36.6619 15.6168C36.6254 15.5347 36.6054 15.4459 36.6031 15.3557C36.606 15.1719 36.6794 14.9966 36.8075 14.8674C36.9356 14.7381 37.1082 14.6652 37.2884 14.6642C37.3764 14.6597 37.4644 14.6731 37.5473 14.7036C37.6302 14.7342 37.7063 14.7813 37.7711 14.8421C37.836 14.903 37.8882 14.9765 37.9249 15.0582C37.9616 15.1399 37.982 15.2283 37.9848 15.3181Z" fill="#263238"/>
<path d="M38.7548 14.4313C38.6663 14.5177 38.1542 14.1081 37.4099 14.0893C36.6656 14.0705 36.113 14.435 36.0319 14.3411C35.9508 14.2471 36.0872 14.1344 36.3303 13.9652C36.658 13.7461 37.0441 13.6359 37.4357 13.6496C37.8217 13.6575 38.1954 13.789 38.5042 14.0254C38.7253 14.2246 38.799 14.3937 38.7548 14.4313Z" fill="#263238"/>
<path d="M41.3042 20.1361C41.6986 20.0199 42.1061 19.9568 42.5164 19.9482C42.708 19.9482 42.8849 19.8994 42.9254 19.7678C42.9465 19.5675 42.9067 19.3655 42.8112 19.1891L42.2917 17.6858C41.5548 15.5624 41.05 13.8186 41.1347 13.7885C41.2195 13.7585 41.8716 15.4572 42.6086 17.5806C42.7854 18.103 42.9512 18.6028 43.1097 19.0838C43.2177 19.3183 43.245 19.5832 43.187 19.8355C43.1572 19.9028 43.1129 19.9624 43.0574 20.0099C43.0019 20.0574 42.9367 20.0916 42.8665 20.1098C42.7603 20.1357 42.6514 20.1484 42.5422 20.1474C42.1307 20.1963 41.7148 20.1925 41.3042 20.1361Z" fill="#263238"/>
<path d="M41.5733 29.126C39.0351 29.0958 36.5552 28.3463 34.4106 26.9612C34.4106 26.9612 36.0575 30.7871 41.4664 30.4225L41.5733 29.126Z" fill="#EB996E"/>
<path d="M40.9395 21.9477C40.803 21.7623 40.6224 21.6154 40.4149 21.5208C40.2073 21.4261 39.9796 21.3868 39.7531 21.4065C39.5883 21.4169 39.4273 21.4613 39.2798 21.5368C39.1322 21.6124 39.0012 21.7177 38.8946 21.8462C38.7919 21.9698 38.7287 22.1224 38.7135 22.2837C38.6984 22.4449 38.732 22.607 38.8099 22.7482C38.9261 22.8875 39.0803 22.9883 39.2528 23.0378C39.4254 23.0874 39.6086 23.0834 39.7789 23.0263C40.1333 22.9091 40.4614 22.7213 40.7442 22.4739C40.83 22.4152 40.9049 22.3414 40.9653 22.2559C40.9934 22.2145 41.0084 22.1653 41.0084 22.115C41.0084 22.0646 40.9934 22.0155 40.9653 21.974" fill="#EB996E"/>
<path d="M39.101 20.5984C39.2226 20.5984 39.2004 21.4177 39.8747 22.0228C40.549 22.6279 41.4112 22.5602 41.4148 22.6767C41.4148 22.7256 41.2196 22.8308 40.8548 22.8308C40.3822 22.8217 39.9276 22.6449 39.5689 22.331C39.2251 22.0285 39.0109 21.601 38.972 21.1396C38.9499 20.7939 39.0457 20.5909 39.101 20.5984Z" fill="#263238"/>
<path d="M39.0237 11.466C38.9463 11.669 38.2057 11.5525 37.3288 11.6352C36.4519 11.7178 35.7408 11.9396 35.6302 11.7517C35.5823 11.6615 35.7113 11.4698 35.9987 11.2781C36.3842 11.0393 36.82 10.8976 37.2698 10.8647C37.7172 10.8243 38.1677 10.8912 38.5852 11.0602C38.9058 11.203 39.0642 11.3683 39.0237 11.466Z" fill="#263238"/>
<path d="M45.8585 12.2928C45.7222 12.4619 45.2137 12.2702 44.5984 12.2439C43.9831 12.2176 43.4562 12.3266 43.342 12.1425C43.2904 12.056 43.3789 11.8831 43.611 11.7291C43.9221 11.5411 44.2812 11.4521 44.6422 11.4735C45.0032 11.4949 45.3498 11.6258 45.6375 11.8493C45.8512 12.0335 45.9175 12.2139 45.8585 12.2928Z" fill="#263238"/>
<path d="M36.6213 5.74607C38.0619 7.70034 36.5623 10.4664 34.9043 12.229C33.2463 13.9916 31.2198 16.0398 31.673 18.4375C32.1998 21.2224 35.9286 23.0038 35.3759 25.7811C35.1733 26.7921 34.3885 27.6602 34.3848 28.69C34.3848 30.5691 36.7465 31.4635 37.4282 33.1998C38.364 35.575 35.7959 37.9427 35.7554 40.502C35.7333 41.9527 36.5402 43.3094 36.5844 44.7601C36.6729 47.7328 33.2241 49.9126 30.3944 49.1797C27.5647 48.4469 25.6303 45.6245 25.0224 42.7194C24.4145 39.8143 25.3429 35.7216 25.7998 32.7826L20.8994 33.9439C19.9857 33.0532 21.2347 32.1099 21.441 30.8434C21.9569 27.6602 24.0202 24.9656 24.9819 21.8989C25.833 19.2193 25.8404 16.348 26.2125 13.5556C26.5846 10.7633 27.4321 7.85442 29.5286 6.00914C31.6251 4.16386 35.2396 3.94213 36.9308 6.17075" fill="#263238"/>
<path d="M25.6341 14.777C26.3482 14.8925 27.0736 14.9152 27.7933 14.8446C29.5254 14.5918 31.151 13.8409 32.48 12.6799C33.791 11.4991 34.9421 10.1456 35.9029 8.65487C36.2714 8.10993 36.5735 7.65518 36.8019 7.30943C36.9045 7.13983 37.0203 6.97896 37.1483 6.82838C37.0692 7.01083 36.9743 7.18567 36.8646 7.35077C36.673 7.68149 36.3856 8.15503 36.0171 8.73003C35.0802 10.2589 33.9295 11.6402 32.6016 12.8302C31.2489 14.0148 29.5818 14.763 27.8117 14.9799C27.2762 15.0356 26.7357 15.0167 26.2052 14.9236C26.0624 14.9004 25.9209 14.8691 25.7815 14.8296C25.682 14.8071 25.6305 14.7845 25.6341 14.777Z" fill="#455A64"/>
<path d="M32.023 15.5136C31.7944 15.7443 31.529 15.9336 31.2382 16.0736C30.5495 16.4527 29.8015 16.707 29.0275 16.8252C28.2568 16.9395 27.4724 16.9153 26.7099 16.7538C26.3923 16.7036 26.0849 16.6008 25.7998 16.4494C25.7998 16.4156 26.1683 16.5283 26.7357 16.6185C28.2412 16.8572 29.7823 16.6267 31.1571 15.9571C31.6988 15.694 32.0009 15.4873 32.023 15.5136Z" fill="#455A64"/>
<path d="M49.5392 11.8193C48.949 11.8272 48.3682 11.6689 47.8605 11.362C47.3528 11.055 46.938 10.6111 46.6616 10.0792C47.0529 10.5015 47.4877 10.8795 47.9585 11.2067C48.4619 11.4692 48.9919 11.6746 49.5392 11.8193Z" fill="#455A64"/>
<path d="M49.1931 13.6797C48.8594 13.7852 48.5036 13.7955 48.1646 13.7094C47.8255 13.6232 47.516 13.444 47.2698 13.1911C47.303 13.146 47.6825 13.3903 48.2094 13.5181C48.7362 13.6458 49.1857 13.612 49.1931 13.6797Z" fill="#455A64"/>
<path d="M26.0394 15.9721C25.8518 15.3859 25.7989 14.7636 25.8847 14.1532C25.9075 13.5363 26.0662 12.9326 26.3489 12.3868C26.4042 12.4056 26.1573 13.1798 26.0763 14.1682C25.9952 15.1566 26.0947 15.9646 26.0394 15.9721Z" fill="#FCA465"/>
</svg>
