<svg width="1" height="1" viewBox="0 0 1 1" fill="none" xmlns="http://www.w3.org/2000/svg">
<path d="M0.980344 0.504618C0.979448 0.603304 0.949938 0.699512 0.895534 0.781123C0.84113 0.862734 0.764267 0.926098 0.674622 0.963231C0.584978 1.00037 0.486568 1.00961 0.391783 0.989796C0.296997 0.969984 0.210078 0.922003 0.141978 0.851898C0.0738779 0.781793 0.0276393 0.692699 0.00909038 0.59584C-0.00945848 0.49898 0.000517885 0.398689 0.0377483 0.307598C0.0749788 0.216507 0.137803 0.13869 0.218311 0.0839529C0.29882 0.0292156 0.393412 4.23109e-06 0.490167 4.5938e-10C0.554923 -2.83099e-06 0.619036 0.0130835 0.678805 0.0384992C0.738575 0.0639149 0.79282 0.101157 0.838398 0.148077C0.883976 0.194997 0.91998 0.250664 0.944345 0.311861C0.96871 0.373057 0.980944 0.43857 0.980344 0.504618Z" fill="#E0E0E0"/>
</svg>
