<svg width="14" height="9" viewBox="0 0 14 9" fill="none" xmlns="http://www.w3.org/2000/svg">
<path d="M0.363685 5.7871L0 1.34753C0.19844 1.31605 0.401251 1.32989 0.593813 1.38804C0.786375 1.4462 0.963882 1.54724 1.11353 1.68385C1.26317 1.82046 1.38122 1.98925 1.45917 2.17803C1.53711 2.36682 1.573 2.57089 1.56425 2.77554V0.0232485C1.56425 0.0232485 3.22234 -0.347719 3.58603 1.87406C3.75304 3.04482 4.04818 4.19278 4.46592 5.29647L5.34973 5.7871L4.51286 0.665445C4.51286 0.665445 6.27263 0.825004 6.58548 2.51627C6.76001 3.49846 7.02179 4.4624 7.36761 5.39619L10.152 6.19396C10.152 6.19396 8.55643 4.73804 8.70895 4.26337C8.86146 3.7887 8.76369 3.81663 9.07263 3.74882C9.59386 3.74528 10.1067 3.88293 10.5587 4.1477C11.0671 4.42293 14 6.19396 14 6.19396V8.38782C14 8.38782 7.17207 8.89042 5.63129 8.59525L2.64358 7.89321C2.1196 7.76826 1.6354 7.5094 1.23656 7.14096C0.837711 6.77251 0.53733 6.30661 0.363685 5.7871Z" fill="#FFBE9D"/>
</svg>
