<svg width="15" height="15" viewBox="0 0 15 15" fill="none" xmlns="http://www.w3.org/2000/svg">
<path d="M8.71565 10.6127H3.72308L3.12546 12.0174C2.9575 12.3812 2.85922 12.7745 2.83593 13.1759C2.82575 13.3557 2.86523 13.5347 2.94988 13.6926C3.03454 13.8506 3.16096 13.9812 3.31477 14.0695C3.75905 14.238 4.22903 14.3252 4.70304 14.3269V14.7055H0V14.3269C0.476628 14.2638 0.917897 14.0368 1.25093 13.6833C1.75578 13.0214 2.16342 12.288 2.46102 11.5062L7.50185 0H7.69858L12.7988 11.828C13.2937 12.9488 13.6934 13.6543 13.9978 13.9445C14.2817 14.18 14.6341 14.3131 15 14.3231V14.7018H8.17371V14.3231H8.45582C8.85578 14.3567 9.25696 14.2754 9.61395 14.0884C9.68892 14.0328 9.74919 13.959 9.78935 13.8738C9.82952 13.7885 9.84832 13.6945 9.84409 13.6C9.84129 13.4713 9.82003 13.3437 9.78098 13.2214C9.78098 13.157 9.6622 12.892 9.46547 12.4225L8.71565 10.6127ZM8.34446 9.82894L6.25463 4.84632L4.08686 9.8138L8.34446 9.82894Z" fill="#E0E0E0"/>
</svg>
