<svg width="7" height="8" viewBox="0 0 7 8" fill="none" xmlns="http://www.w3.org/2000/svg">
<path d="M4.19913 7.45065C4.19749 7.42411 4.19749 7.3975 4.19913 7.37096L4.22516 7.1395C4.25492 6.93459 4.29213 6.63103 4.35166 6.24399C4.41118 5.85695 4.49301 5.38263 4.61949 4.84001C4.76016 4.22341 4.95951 3.62229 5.21472 3.04521C5.36277 2.70997 5.53955 2.38872 5.74298 2.08519C5.85679 1.9241 6.00749 1.79384 6.18195 1.70574C6.27729 1.66117 6.38165 1.64034 6.48642 1.64496C6.5912 1.64957 6.69339 1.67951 6.78461 1.7323C6.88081 1.79101 6.95159 1.88476 6.98266 1.99463C7.01373 2.1045 7.00278 2.2223 6.95202 2.32425C6.84331 2.52262 6.66738 2.67373 6.45723 2.74923C6.02123 2.89132 5.54784 2.85177 5.14032 2.63919C4.92823 2.52815 4.74042 2.37438 4.58824 2.1872C4.43606 2.00002 4.32267 1.78331 4.25493 1.55016C4.17587 1.30496 4.16556 1.04211 4.22516 0.791257C4.25681 0.660315 4.33189 0.544572 4.43767 0.463654C4.54344 0.382736 4.6734 0.341626 4.8055 0.347299C4.87402 0.355532 4.93947 0.380993 4.99596 0.421393C5.05245 0.461793 5.09822 0.515868 5.12916 0.578765C5.18842 0.703768 5.20416 0.845632 5.1738 0.980984C5.09328 1.23651 4.93576 1.4596 4.72367 1.61847C4.51798 1.79035 4.2794 1.91658 4.02318 1.9891C3.76696 2.06162 3.49873 2.07885 3.23562 2.03966C2.97299 1.99444 2.72506 1.88482 2.51315 1.72024C2.30125 1.55565 2.13172 1.34103 2.01913 1.09482C1.96089 0.973358 1.92755 0.841055 1.92116 0.706C1.91476 0.570945 1.93544 0.435975 1.98193 0.309351C2.00742 0.244682 2.04567 0.18605 2.09431 0.137093C2.14295 0.0881364 2.20093 0.0499001 2.26466 0.0247618C2.32893 0.00298462 2.39702 -0.00455369 2.46438 0.00264407C2.53174 0.00984183 2.59682 0.0316103 2.65527 0.0665018C2.77008 0.132915 2.86225 0.233543 2.91941 0.354889C2.97644 0.473215 3.00814 0.602562 3.01241 0.734342C3.02674 0.985618 2.99132 1.23726 2.90825 1.47427C2.75132 1.9362 2.42818 2.32005 2.00425 2.54812C1.60041 2.76272 1.13475 2.82326 0.691045 2.71888C0.472154 2.68169 0.271775 2.57082 0.121867 2.40393C0.048734 2.31888 0.00598746 2.21107 0.00058345 2.09807C-0.00482056 1.98508 0.0274413 1.87354 0.0921106 1.78163C0.165904 1.6984 0.26874 1.648 0.378556 1.64123C0.48297 1.63307 0.5875 1.65544 0.679885 1.70574C0.848934 1.80903 0.979734 1.96645 1.0519 2.15349C1.20814 2.50638 1.33463 2.84789 1.46111 3.17422C1.95589 4.48333 2.30187 5.56098 2.53623 6.3085C2.65156 6.68795 2.73711 6.97254 2.79664 7.17365L2.85988 7.39753C2.86782 7.42235 2.87403 7.44771 2.87848 7.47342C2.86808 7.45007 2.85937 7.42597 2.85244 7.40132C2.83383 7.34819 2.81152 7.27231 2.78176 7.17744C2.71852 6.97633 2.62551 6.68795 2.50647 6.31988C2.26466 5.56098 1.90753 4.49851 1.40904 3.19319C1.28255 2.87066 1.15235 2.52536 0.999821 2.18005C0.924775 2.0026 0.79387 1.85572 0.627809 1.76265C0.589215 1.73051 0.544795 1.70644 0.49708 1.69181C0.449366 1.67718 0.399291 1.67229 0.34972 1.6774C0.300148 1.68251 0.252041 1.69752 0.20816 1.72159C0.164279 1.74566 0.125483 1.77831 0.0939725 1.81768C0.0624621 1.85704 0.0388579 1.90236 0.0245154 1.95103C0.0101729 1.9997 0.00537206 2.05077 0.010381 2.10133C0.01539 2.15189 0.0301173 2.20095 0.0537151 2.24571C0.0773129 2.29047 0.109316 2.33005 0.14791 2.36219C0.28947 2.51517 0.476372 2.6165 0.679885 2.65058C1.10752 2.75072 1.55618 2.6915 1.94474 2.48362C2.35195 2.26286 2.66176 1.89259 2.81152 1.44771C2.89125 1.22175 2.92541 0.981691 2.91196 0.741933C2.91304 0.622491 2.88424 0.504738 2.82825 0.399825C2.77227 0.294913 2.69096 0.206312 2.59203 0.142397C2.54319 0.112753 2.48859 0.0943385 2.43205 0.0884401C2.37551 0.0825416 2.31838 0.0892974 2.26466 0.108242C2.21072 0.128764 2.16164 0.160667 2.12061 0.20186C2.07959 0.243053 2.04755 0.292612 2.02658 0.347299C1.98383 0.463619 1.96507 0.587686 1.97147 0.711738C1.97787 0.835789 2.00929 0.957155 2.06377 1.06826C2.17066 1.30262 2.33184 1.50695 2.5334 1.66362C2.73495 1.82029 2.97085 1.9246 3.22074 1.96756C3.47202 2.00639 3.72851 1.99063 3.97341 1.92132C4.21831 1.852 4.44609 1.7307 4.64182 1.56534C4.84214 1.41743 4.9918 1.20902 5.06964 0.969601C5.09755 0.85325 5.083 0.730513 5.02871 0.624297C5.00515 0.572364 4.96876 0.527573 4.9231 0.494312C4.87745 0.461051 4.82411 0.440462 4.76831 0.434571C4.71182 0.428793 4.65477 0.43454 4.60048 0.451478C4.54619 0.468416 4.49575 0.49621 4.45209 0.533233C4.3637 0.607946 4.30004 0.708649 4.26981 0.821614C4.21327 1.05342 4.22229 1.29682 4.29584 1.5236C4.36142 1.74713 4.47028 1.95498 4.61596 2.13486C4.76165 2.31475 4.94121 2.46301 5.14403 2.57089C5.53414 2.77485 5.98753 2.81304 6.40516 2.67714C6.5981 2.61208 6.76092 2.47706 6.86274 2.29768C6.90747 2.21119 6.91773 2.11042 6.89139 2.0164C6.86505 1.92237 6.80415 1.84234 6.72137 1.79301C6.63942 1.7449 6.5474 1.71739 6.45294 1.71277C6.35849 1.70815 6.26432 1.72656 6.17823 1.76645C6.01104 1.85633 5.86799 1.98661 5.76157 2.14591C5.55885 2.44722 5.3821 2.76589 5.23332 3.09833C4.97672 3.67036 4.7749 4.26634 4.63066 4.87796C4.50046 5.41678 4.41862 5.8911 4.35166 6.27434C4.28469 6.65759 4.24376 6.96116 4.214 7.16606C4.214 7.26472 4.18425 7.3444 4.17681 7.39753C4.185 7.4149 4.19244 7.43262 4.19913 7.45065Z" fill="#263238"/>
</svg>
