<svg width="6" height="5" viewBox="0 0 6 5" fill="none" xmlns="http://www.w3.org/2000/svg">
<path d="M0.100444 0.283457C1.29128 -0.130646 2.58898 -0.0898738 3.75257 0.398204C4.32894 0.648126 4.83448 1.04181 5.22271 1.54308C5.61095 2.04434 5.86943 2.6371 5.9744 3.26687C6.02294 3.55857 6.00227 3.85789 5.91412 4.13977C5.8677 4.27955 5.7908 4.40675 5.68919 4.51181C5.58758 4.61687 5.46392 4.69704 5.32753 4.74628C5.0977 4.78827 4.86074 4.75546 4.65019 4.6525C4.43964 4.54953 4.26617 4.38163 4.15435 4.17255C3.94215 3.75131 3.76865 3.31094 3.63607 2.85706C3.33801 2.11601 2.83613 1.47874 2.19096 1.02209C1.5458 0.565436 0.784887 0.308916 0 0.283457L0.192856 0.336735" fill="black"/>
</svg>
