<svg width="32" height="32" viewBox="0 0 32 32" fill="none" xmlns="http://www.w3.org/2000/svg">
<path d="M26.5923 10.6501C26.6092 10.8835 26.6092 11.1168 26.6092 11.3502C26.6092 18.4668 21.1102 26.6668 11.0593 26.6668C7.96281 26.6668 5.08633 25.7835 2.66669 24.2502C3.10663 24.3002 3.52961 24.3168 3.98649 24.3168C6.54145 24.3168 8.89343 23.4668 10.7716 22.0168C8.3689 21.9668 6.35535 20.4168 5.66159 18.2835C6.00003 18.3335 6.33842 18.3668 6.69378 18.3668C7.18446 18.3668 7.67519 18.3002 8.13202 18.1835C5.62779 17.6835 3.74955 15.5168 3.74955 12.9001V12.8335C4.47711 13.2335 5.32321 13.4835 6.21993 13.5168C4.74785 12.5501 3.78341 10.9001 3.78341 9.03346C3.78341 8.03348 4.05409 7.11682 4.52789 6.3168C7.21827 9.58347 11.2623 11.7168 15.797 11.9501C15.7124 11.5501 15.6616 11.1335 15.6616 10.7168C15.6616 7.75014 18.0982 5.3335 21.127 5.3335C22.7006 5.3335 24.1219 5.9835 25.1202 7.0335C26.3554 6.80018 27.5398 6.35015 28.5888 5.7335C28.1827 6.98352 27.3198 8.03352 26.1862 8.70015C27.286 8.58354 28.352 8.28347 29.3334 7.86684C28.589 8.93347 27.6583 9.88343 26.5923 10.6501Z" fill="black"/>
</svg>
