<svg width="5" height="4" viewBox="0 0 5 4" fill="none" xmlns="http://www.w3.org/2000/svg">
<path d="M4.13527 0C4.37978 0.300996 4.56704 0.645914 4.68743 1.01702C4.76227 1.20353 4.82206 1.39596 4.86619 1.59239C4.92559 1.82486 4.92559 2.06898 4.86619 2.30146C4.70373 2.82104 4.35078 3.25654 3.88103 3.51702C3.64567 3.65902 3.38952 3.76162 3.12231 3.82091C2.87614 3.86939 2.62619 3.89514 2.3755 3.89788C1.90675 3.89788 1.48568 3.89789 1.13611 3.91815C0.432992 3.91815 0.0119172 4.0235 0 3.99513C0.356954 3.84183 0.740873 3.76462 1.12816 3.76823C1.48171 3.73987 1.92264 3.73176 2.36755 3.7034C2.60643 3.6946 2.84422 3.66615 3.07861 3.61831C3.3247 3.56141 3.56058 3.46572 3.77775 3.33468C4.20482 3.0966 4.52822 2.70307 4.68346 2.23257C4.73669 2.02812 4.73669 1.81304 4.68346 1.60859C4.64956 1.42014 4.60176 1.23458 4.54045 1.05348C4.32992 0.405188 4.10746 0.0162074 4.13527 0Z" fill="#AA6550"/>
</svg>
