<svg width="2" height="4" viewBox="0 0 2 4" fill="none" xmlns="http://www.w3.org/2000/svg">
<path d="M1.89734 2.71186C1.89734 2.71186 1.93019 2.80401 1.8727 2.959C1.83186 3.06946 1.76589 3.16846 1.68021 3.24783C1.59454 3.32721 1.49161 3.3847 1.3799 3.41557C1.21176 3.45548 1.03634 3.45022 0.870783 3.4003C0.705231 3.35037 0.555216 3.25749 0.435382 3.13074C0.151835 2.81728 -0.00384223 2.40532 8.20898e-05 1.97883C-0.00366946 1.55944 0.12125 1.14935 0.357356 0.805982C0.549881 0.527952 0.812334 0.308003 1.11708 0.169291C1.31842 0.0735563 1.53589 0.018101 1.75771 0.00592963C1.83897 -0.00650073 1.92195 0.0006737 2 0.0268747C1.71622 0.0718109 1.43985 0.156382 1.17868 0.278202C0.903645 0.422403 0.667994 0.633977 0.492869 0.893949C0.285276 1.21583 0.176612 1.59358 0.180774 1.97883C0.175001 2.36034 0.308156 2.73048 0.554478 3.01764C0.656444 3.13213 0.785483 3.21804 0.929272 3.26717C1.07306 3.3163 1.2268 3.32702 1.3758 3.29829C1.4738 3.27393 1.5657 3.22893 1.64562 3.16617C1.72554 3.1034 1.7917 3.02427 1.83984 2.93387C1.8809 2.79983 1.88091 2.71186 1.89734 2.71186Z" fill="#EB996E"/>
</svg>
