<svg width="3" height="3" viewBox="0 0 3 3" fill="none" xmlns="http://www.w3.org/2000/svg">
<path d="M1.08094 2.40671C1.37518 2.42747 1.67058 2.3903 1.95106 2.29724C2.23394 2.18229 2.46667 1.96711 2.60652 1.69122C2.68066 1.52002 2.71896 1.33492 2.71896 1.14776C2.71896 0.960602 2.68066 0.775502 2.60652 0.604302C2.56992 0.516271 2.52224 0.433468 2.4647 0.357983C2.39953 0.287607 2.41487 0.291519 2.34204 0.299339C2.26921 0.307158 2.16955 0.369717 2.08138 0.404905L1.8169 0.518286C1.46808 0.659038 1.15377 0.784153 0.885451 0.885807C0.606312 1.02413 0.307462 1.1165 0 1.15949C0.242563 0.962041 0.514241 0.805008 0.804953 0.694225L1.70957 0.264152L1.97406 0.146857C2.06905 0.0972817 2.16775 0.055444 2.26921 0.0217412C2.3472 -0.00724707 2.43271 -0.00724707 2.51069 0.0217412C2.58185 0.0516573 2.644 0.100212 2.69085 0.162494C2.86551 0.394133 2.97105 0.672194 2.99485 0.963411C3.01864 1.25463 2.95968 1.54668 2.82501 1.80461C2.64799 2.13487 2.35052 2.3807 1.99706 2.48882C1.7697 2.56091 1.52769 2.57035 1.29559 2.51619C1.14993 2.481 1.07711 2.42235 1.08094 2.40671Z" fill="#263238"/>
</svg>
