<svg width="3" height="11" viewBox="0 0 3 11" fill="none" xmlns="http://www.w3.org/2000/svg">
<path d="M0.974324 11C0.86313 10.8948 0.76744 10.7738 0.690229 10.6406C0.462181 10.2845 0.292062 9.89305 0.186438 9.48152C-0.126886 8.12308 -0.0439334 6.70083 0.42508 5.38987C0.932664 3.84439 1.59554 2.5655 1.96676 1.58799C2.15616 1.10116 2.29632 0.699336 2.38344 0.428877C2.41792 0.280548 2.46875 0.13667 2.53495 0C2.52714 0.15319 2.50172 0.304919 2.4592 0.452058C2.39102 0.737972 2.2698 1.14752 2.08041 1.64594C1.73949 2.64277 1.09554 3.96416 0.59553 5.45941C0.141715 6.73878 0.040832 8.12065 0.303863 9.45447C0.455179 9.99916 0.680875 10.5194 0.974324 11Z" fill="#263238"/>
</svg>
