<svg width="13" height="14" viewBox="0 0 13 14" fill="none" xmlns="http://www.w3.org/2000/svg">
<path d="M12.699 6.54332C12.7107 5.38371 12.4169 4.24217 11.8484 3.23791C11.2799 2.23366 10.4574 1.40352 9.46691 0.834206C8.47642 0.264889 7.35424 -0.0227244 6.21755 0.00140217C5.08087 0.0255287 3.97139 0.36051 3.00498 0.971363C2.03857 1.58222 1.25068 2.44653 0.723593 3.47405C0.196508 4.50156 -0.0504332 5.65457 0.00855318 6.81268C0.0675395 7.97078 0.430287 9.09149 1.05892 10.0578C1.68756 11.024 2.55902 11.8004 3.58229 12.3058C3.58229 13.0656 3.58229 13.9392 3.58229 13.9392L9.14616 14C9.14616 14 9.19084 13.0808 9.20946 12.264C10.251 11.7305 11.1279 10.9141 11.7436 9.90467C12.3594 8.89527 12.6899 7.7321 12.699 6.54332Z" fill="#FCA465"/>
</svg>
