<svg width="220" height="80" viewBox="0 0 220 80" fill="none" xmlns="http://www.w3.org/2000/svg">
<path d="M11.6722 69.1752C11.6892 69.1153 11.7126 69.0574 11.7421 69.0028C11.7972 68.8791 11.8744 68.7141 11.9699 68.508C12.2419 67.8664 12.4619 67.2032 12.6278 66.525C13.0688 64.7669 13.2231 62.0755 12.569 58.8818C12.2199 57.1374 11.7596 55.4182 11.1908 53.735C10.6028 51.9095 9.91926 49.9865 9.35331 47.8874C8.7227 45.7047 8.41793 43.4377 8.44925 41.1625C8.53378 38.7859 9.22469 36.4094 9.98174 34.0403C10.7388 31.6712 11.5252 29.3697 11.7641 27.0531C12.0265 24.8151 11.5864 22.5499 10.5073 20.5831C9.50031 18.7089 8.23611 17.0783 7.29163 15.4064C6.40741 13.8561 5.75583 12.1794 5.35856 10.4321C4.78852 7.89901 4.7472 5.27191 5.23729 2.72143C5.40735 1.79047 5.66708 0.878908 6.01272 0C6.00318 0.0611707 5.98842 0.12138 5.96862 0.179933C5.92819 0.311131 5.87674 0.483561 5.80692 0.704724C5.61107 1.37879 5.45158 2.0633 5.32916 2.75516C4.87749 5.29193 4.9438 7.89646 5.52394 10.4059C5.93557 12.1289 6.5957 13.78 7.48273 15.3052C8.42721 16.9583 9.68774 18.5664 10.7204 20.4744C11.8268 22.4793 12.281 24.7906 12.0177 27.0756C11.7825 29.4446 10.9924 31.7725 10.239 34.134C9.48561 36.4956 8.79471 38.8459 8.71018 41.185C8.67703 43.4353 8.97433 45.6781 9.59219 47.8386C10.1214 49.919 10.7902 51.8608 11.3782 53.6826C11.9459 55.3718 12.4038 57.0974 12.749 58.848C13.3848 62.068 13.2011 64.7857 12.727 66.5512C12.5488 67.2305 12.3101 67.8917 12.014 68.5267L11.7641 69.014C11.7369 69.0697 11.7062 69.1235 11.6722 69.1752Z" fill="#263238"/>
<path d="M8.5852 17.0556C8.5852 17.0556 6.66317 10.7919 10.1103 7.12207C10.1372 7.09203 10.1717 7.07025 10.2101 7.05922C10.2484 7.04819 10.289 7.04835 10.3273 7.05967C10.3655 7.07099 10.3999 7.09302 10.4265 7.12326C10.4532 7.15351 10.4709 7.19076 10.4778 7.23078C10.6506 8.26537 10.8821 11.4179 8.5852 17.0556Z" fill="#73C255"/>
<path d="M9.72811 9.21002C9.72386 9.59833 9.68077 9.98518 9.59948 10.3646C9.47085 11.163 9.32385 12.0964 9.15848 13.131C8.9931 14.1656 8.85345 15.0952 8.7285 15.8936C8.69572 16.2803 8.62806 16.663 8.52637 17.0369C8.48968 16.6485 8.50079 16.2568 8.55945 15.8711C8.6256 15.1552 8.74687 14.1731 8.92695 13.0897C9.10703 12.0064 9.29445 11.0356 9.4341 10.3346C9.4905 9.94968 9.58912 9.57246 9.72811 9.21002Z" fill="#263238"/>
<path d="M10.8344 31.8361C10.8344 31.8361 12.0067 25.3812 16.7365 23.7806C16.7736 23.7677 16.8135 23.7657 16.8518 23.7745C16.8901 23.7834 16.9252 23.8028 16.9533 23.8307C16.9814 23.8586 17.0015 23.8939 17.0112 23.9327C17.0209 23.9714 17.0199 24.0122 17.0084 24.0504C16.696 25.0513 15.4539 27.9489 10.8344 31.8361Z" fill="#73C255"/>
<path d="M15.4464 25.4486C15.2641 25.7896 15.0486 26.1111 14.8033 26.4082L13.1495 28.6573L11.5031 30.9064C11.293 31.2233 11.0543 31.5195 10.7902 31.7911C10.9384 31.4318 11.1285 31.0921 11.3561 30.779C11.7236 30.1792 12.3006 29.3658 12.9511 28.4924C13.6015 27.619 14.2079 26.8468 14.6636 26.2995C14.8919 25.9864 15.1546 25.7009 15.4464 25.4486Z" fill="#263238"/>
<path d="M9.55541 48.0259C9.55541 48.0259 8.84246 41.5034 12.9107 38.5721C12.9425 38.5486 12.9801 38.5346 13.0193 38.5315C13.0584 38.5284 13.0977 38.5364 13.1326 38.5546C13.1676 38.5728 13.197 38.6006 13.2175 38.6348C13.238 38.6689 13.2488 38.7082 13.2488 38.7483C13.2341 39.8016 12.8703 42.9391 9.55541 48.0259Z" fill="#73C255"/>
<path d="M12.1536 40.5476C12.0759 40.9334 11.9601 41.3101 11.8082 41.6722L10.8637 44.2961C10.4962 45.2782 10.1949 46.1704 9.92291 46.9201C9.81791 47.2919 9.68015 47.6532 9.51131 47.9997C9.54856 47.6157 9.63251 47.2379 9.76121 46.8751C9.95598 46.1854 10.2647 45.2445 10.6359 44.2174C11.007 43.1903 11.3709 42.2682 11.6502 41.5934C11.7783 41.2264 11.9472 40.8755 12.1536 40.5476Z" fill="#263238"/>
<path d="M13.1163 64.3133C13.1163 64.3133 12.6312 57.7684 16.7914 54.987C16.8242 54.9648 16.8624 54.9523 16.9017 54.9509C16.9411 54.9494 16.98 54.9592 17.0143 54.979C17.0485 54.9988 17.0767 55.0279 17.0958 55.063C17.1148 55.0982 17.1239 55.138 17.1221 55.1781C17.0817 56.2277 16.6113 59.3577 13.1163 64.3133Z" fill="#73C255"/>
<path d="M15.9757 56.9362C15.8893 57.3126 15.7662 57.6793 15.6082 58.0307L14.5682 60.6247C14.2007 61.5918 13.8332 62.469 13.5392 63.215C13.4205 63.5843 13.2692 63.9419 13.0872 64.2833C13.1409 63.8982 13.2383 63.5208 13.3775 63.1587C13.598 62.4728 13.9361 61.5431 14.3477 60.5348C14.7593 59.5264 15.1489 58.6155 15.4502 57.967C15.5869 57.6044 15.7632 57.2586 15.9757 56.9362Z" fill="#263238"/>
<path d="M5.8143 11.5529C5.8143 11.5529 0.11067 8.51281 0.00041956 3.43356C-0.00208584 3.39324 0.0066673 3.35303 0.0256637 3.31757C0.0446602 3.28212 0.0731212 3.25289 0.107746 3.23327C0.14237 3.21364 0.181739 3.20445 0.221285 3.20673C0.26083 3.209 0.298933 3.22266 0.331172 3.24613C1.1801 3.84215 3.52844 5.90384 5.8143 11.5529Z" fill="#73C255"/>
<path d="M1.18378 5.17656C1.44859 5.45603 1.68613 5.76111 1.89306 6.08746L3.50272 8.35531L5.11605 10.6044C5.36214 10.9013 5.57996 11.2213 5.76653 11.5603C5.47409 11.31 5.21138 11.0257 4.98375 10.7131C4.53172 10.1584 3.9327 9.37491 3.30794 8.48651C2.68319 7.59811 2.13561 6.77718 1.75341 6.16992C1.52813 5.86128 1.33709 5.52813 1.18378 5.17656Z" fill="#263238"/>
<path d="M11.9404 25.0063C11.9404 25.0063 6.06039 22.3298 5.65246 17.2656C5.64842 17.2256 5.65531 17.1853 5.67238 17.1491C5.68944 17.1129 5.716 17.0822 5.74912 17.0605C5.78224 17.0387 5.82061 17.0268 5.85999 17.0259C5.89936 17.0251 5.9382 17.0354 5.97219 17.0557C6.85419 17.603 9.32013 19.511 11.9404 25.0063Z" fill="#73C255"/>
<path d="M6.93881 18.9338C7.22169 19.1939 7.47781 19.4828 7.70321 19.7959L9.4415 21.9626L11.1871 24.1217C11.4507 24.4014 11.687 24.7064 11.8927 25.0326C11.5851 24.8019 11.3062 24.5338 11.0622 24.2342C10.5771 23.7131 9.93395 22.9672 9.25775 22.1163C8.58154 21.2654 7.98252 20.4819 7.56724 19.9047C7.32427 19.6049 7.11358 19.2794 6.93881 18.9338Z" fill="#263238"/>
<path d="M8.55945 40.0192C8.55945 40.0192 4.51693 34.9024 6.42059 30.2018C6.43634 30.1672 6.46072 30.1374 6.4913 30.1155C6.52188 30.0936 6.55757 30.0802 6.5948 30.0768C6.63203 30.0734 6.66949 30.08 6.70342 30.096C6.73735 30.1121 6.76655 30.1369 6.78809 30.168C7.33935 31.0602 8.6844 33.9091 8.55945 40.0192Z" fill="#73C255"/>
<path d="M6.81756 32.2859C6.95321 32.6495 7.05173 33.0263 7.11156 33.4105C7.28061 34.1977 7.47906 35.1235 7.69589 36.1431C7.91272 37.1627 8.11484 38.0886 8.28757 38.8758C8.3941 39.2495 8.46789 39.6321 8.50807 40.0191C8.3373 39.6699 8.20777 39.3012 8.12219 38.9208C7.92374 38.2311 7.68487 37.2677 7.46069 36.1956C7.23651 35.1235 7.05644 34.1527 6.94619 33.4405C6.86505 33.061 6.82195 32.6742 6.81756 32.2859Z" fill="#263238"/>
<path d="M12.558 57.6821C12.558 57.6821 6.7257 54.9007 6.38025 49.8327C6.37723 49.7928 6.38506 49.7529 6.40289 49.7172C6.42071 49.6816 6.44784 49.6516 6.48128 49.6307C6.51472 49.6098 6.55318 49.5987 6.59241 49.5986C6.63165 49.5985 6.67014 49.6095 6.70365 49.6303C7.593 50.1888 10.0295 52.1418 12.558 57.6821Z" fill="#73C255"/>
<path d="M7.65534 51.5196C7.92765 51.787 8.17381 52.0807 8.39035 52.3967L10.0919 54.5934L11.8044 56.7788C12.0621 57.0651 12.2934 57.375 12.4953 57.7046C12.1898 57.4711 11.9144 57.199 11.6758 56.895C11.1981 56.3627 10.5733 55.6055 9.90445 54.7433C9.2356 53.8811 8.65862 53.0902 8.25437 52.4942C8.01744 52.1947 7.81635 51.8676 7.65534 51.5196Z" fill="#263238"/>
<path d="M24.171 31.8698C24.1767 31.9184 24.1767 31.9674 24.171 32.016C24.171 32.1284 24.171 32.2672 24.171 32.4321C24.1526 32.8294 24.1306 33.3617 24.1012 34.0252C24.0277 35.4234 23.9211 37.3764 23.7962 39.7117C23.3735 42.1145 22.1828 44.7385 20.5952 47.2875C19.4266 49.1617 18.2028 50.8823 17.1444 52.4754C16.1906 53.8685 15.3311 55.3263 14.5719 56.8387C14.0721 57.8651 13.6673 58.9368 13.3628 60.0399C13.2599 60.4148 13.1827 60.7372 13.1386 60.9471C13.1195 61.0543 13.0912 61.1597 13.0541 61.2619C13.0556 61.1523 13.0679 61.043 13.0908 60.9358C13.1202 60.7222 13.1827 60.411 13.2709 60.0137C13.5437 58.8929 13.9292 57.8038 14.4212 56.7637C15.1706 55.229 16.0305 53.7531 16.9937 52.348C18.0448 50.7473 19.2612 49.0305 20.4262 47.1563C22.0101 44.6148 23.1898 42.0208 23.6234 39.6855C23.7851 37.3539 23.9174 35.4047 24.0167 34.0065C24.0681 33.343 24.1085 32.8107 24.1416 32.4171C24.1416 32.2522 24.171 32.1135 24.182 32.001C24.1931 31.8885 24.1637 31.8698 24.171 31.8698Z" fill="#263238"/>
<path d="M20.7128 46.8002C20.7128 46.8002 23.1824 40.7388 20.077 36.7654C20.0524 36.7353 20.0204 36.7125 19.9842 36.6995C19.948 36.6864 19.909 36.6836 19.8713 36.6913C19.8337 36.6989 19.7988 36.7168 19.7703 36.7431C19.7418 36.7693 19.7208 36.8029 19.7095 36.8403C19.4155 37.8524 18.9046 40.9899 20.7128 46.8002Z" fill="#73C255"/>
<path d="M20.2497 38.8796C20.3553 39.2536 20.4206 39.6382 20.4444 40.0267C20.5326 40.7389 20.6282 41.7248 20.7054 42.8193C20.7825 43.9139 20.8193 44.9035 20.8193 45.6232C20.8444 46.012 20.8209 46.4025 20.7495 46.7853C20.6825 46.403 20.6493 46.0153 20.6502 45.627C20.5951 44.8248 20.5363 43.8802 20.4665 42.8343C20.3967 41.7885 20.3305 40.8476 20.2754 40.0417C20.2279 39.6563 20.2193 39.2669 20.2497 38.8796Z" fill="#263238"/>
<g opacity="0.3">
<path d="M20.7128 46.8002C20.7128 46.8002 23.1824 40.7388 20.077 36.7654C20.0524 36.7353 20.0204 36.7125 19.9842 36.6995C19.948 36.6864 19.909 36.6836 19.8713 36.6913C19.8337 36.6989 19.7988 36.7168 19.7703 36.7431C19.7418 36.7693 19.7208 36.8029 19.7095 36.8403C19.4155 37.8524 18.9046 40.9899 20.7128 46.8002Z" fill="black"/>
</g>
<path d="M13.0502 61.4081C13.0502 61.4081 15.0311 55.1631 11.617 51.4596C11.5904 51.4296 11.5561 51.4077 11.518 51.3965C11.4799 51.3853 11.4395 51.3851 11.4014 51.396C11.3632 51.4069 11.3287 51.4284 11.3019 51.4582C11.2751 51.488 11.2569 51.5248 11.2495 51.5645C11.0584 52.6104 10.7901 55.7479 13.0502 61.4081Z" fill="#73C255"/>
<path d="M11.9736 53.5513C12.11 53.9141 12.2062 54.2913 12.2603 54.6759C12.4036 55.3768 12.58 56.3552 12.7417 57.4348C12.9034 58.5143 13.021 59.5039 13.0761 60.2199C13.1307 60.606 13.1393 60.9975 13.1019 61.3857C13.0009 61.0119 12.9356 60.629 12.9071 60.2424C12.7932 59.444 12.6535 58.5068 12.5028 57.4722C12.3522 56.4377 12.2088 55.5043 12.0912 54.7058C12.0141 54.326 11.9747 53.9392 11.9736 53.5513Z" fill="#263238"/>
<g opacity="0.3">
<path d="M13.0502 61.4081C13.0502 61.4081 15.0311 55.1631 11.617 51.4596C11.5904 51.4296 11.5561 51.4077 11.518 51.3965C11.4799 51.3853 11.4395 51.3851 11.4014 51.396C11.3632 51.4069 11.3287 51.4284 11.3019 51.4582C11.2751 51.488 11.2569 51.5248 11.2495 51.5645C11.0584 52.6104 10.7901 55.7479 13.0502 61.4081Z" fill="black"/>
</g>
<path d="M23.8438 39.3894C23.8438 39.3894 29.1175 35.6408 28.5846 30.5728C28.5825 30.5303 28.5682 30.4894 28.5435 30.4551C28.5188 30.4208 28.4848 30.3947 28.4457 30.3799C28.4066 30.3651 28.364 30.3624 28.3234 30.372C28.2828 30.3817 28.2458 30.4033 28.2171 30.4342C27.4637 31.1389 25.3947 33.493 23.8438 39.3894Z" fill="#73C255"/>
<g opacity="0.3">
<path d="M23.8438 39.3894C23.8438 39.3894 29.1175 35.6408 28.5846 30.5728C28.5825 30.5303 28.5682 30.4894 28.5435 30.4551C28.5188 30.4208 28.4848 30.3947 28.4457 30.3799C28.4066 30.3651 28.364 30.3624 28.3234 30.372C28.2828 30.3817 28.2458 30.4033 28.2171 30.4342C27.4637 31.1389 25.3947 33.493 23.8438 39.3894Z" fill="black"/>
</g>
<path d="M27.6292 32.4621C27.523 32.8349 27.3763 33.1945 27.1919 33.5342C26.8905 34.1864 26.4569 35.0711 25.946 36.0344C25.4352 36.9978 24.9428 37.8562 24.5642 38.4635C24.3787 38.8042 24.1541 39.1213 23.8954 39.4081C24.0375 39.0475 24.2122 38.7011 24.4172 38.3735L25.7329 35.9182L27.0412 33.4555C27.2039 33.105 27.4009 32.7721 27.6292 32.4621Z" fill="#263238"/>
<path d="M15.1781 55.2343C15.1781 55.2343 21.5359 54.2222 23.2411 49.4504C23.2557 49.4126 23.2596 49.3714 23.2525 49.3315C23.2453 49.2915 23.2273 49.2544 23.2005 49.2244C23.1737 49.1944 23.1393 49.1726 23.101 49.1615C23.0627 49.1504 23.0221 49.1505 22.9839 49.1617C21.9916 49.4316 19.1177 50.6161 15.1781 55.2343Z" fill="#73C255"/>
<g opacity="0.3">
<path d="M15.1781 55.2343C15.1781 55.2343 21.5359 54.2222 23.2411 49.4504C23.2557 49.4126 23.2596 49.3714 23.2525 49.3315C23.2453 49.2915 23.2273 49.2544 23.2005 49.2244C23.1737 49.1944 23.1393 49.1726 23.101 49.1615C23.0627 49.1504 23.0221 49.1505 22.9839 49.1617C21.9916 49.4316 19.1177 50.6161 15.1781 55.2343Z" fill="black"/>
</g>
<path d="M21.5691 50.6949C21.3116 50.9818 21.0245 51.2394 20.7128 51.4634C20.1616 51.9132 19.3862 52.513 18.5078 53.1465C17.6295 53.78 16.8247 54.3348 16.222 54.7059C15.9081 54.9294 15.5687 55.1132 15.2113 55.2531C15.4967 54.9956 15.8042 54.7648 16.1301 54.5634L18.3682 52.9478L20.6063 51.3247C20.9053 51.0819 21.228 50.8708 21.5691 50.6949Z" fill="#263238"/>
<path d="M7.65167 67.1546L9.47448 79.3598L16.762 79.3448L19.2133 67.1546H7.65167Z" fill="#455A64"/>
<path d="M18.1402 71.8628C18.1402 71.8628 18.1402 71.8816 18.0777 71.9078C18.0161 71.9489 17.9523 71.9864 17.8866 72.0203C17.6304 72.146 17.3563 72.2295 17.0744 72.2677C16.6236 72.3277 16.1653 72.2842 15.7331 72.1402C15.153 71.9509 14.648 71.5763 14.2925 71.0719C14.0935 70.7684 13.9769 70.4166 13.9544 70.0523C13.9352 69.8478 13.9713 69.6419 14.0588 69.4569C14.1462 69.2718 14.2817 69.1148 14.4505 69.0027C14.6436 68.9045 14.8593 68.8621 15.0744 68.8799C15.2894 68.8977 15.4956 68.9752 15.6706 69.1039C16.0338 69.3758 16.2831 69.7774 16.3688 70.2285C16.4623 70.6817 16.4932 71.146 16.4607 71.6079C16.4331 72.0906 16.3327 72.566 16.163 73.0174C15.9833 73.4911 15.6932 73.9131 15.3178 74.2469C14.9274 74.5962 14.4356 74.8055 13.9176 74.8429C13.3961 74.8546 12.8834 74.7042 12.4476 74.4118C12.0268 74.1433 11.6539 73.8036 11.3451 73.4072C11.0324 73.0271 10.8402 72.5592 10.7938 72.0653C10.7751 71.8239 10.8122 71.5815 10.9022 71.3575C10.9922 71.1335 11.1326 70.9342 11.312 70.7758C11.4958 70.6355 11.7158 70.553 11.9449 70.5383C12.174 70.5237 12.4024 70.5775 12.6019 70.6933C12.7911 70.791 12.9557 70.9318 13.0832 71.1047C13.2106 71.2775 13.2974 71.4779 13.337 71.6904C13.3913 72.0619 13.3369 72.4414 13.1806 72.7815C13.0244 73.1216 12.7732 73.407 12.4586 73.6022C11.9217 73.8982 11.2991 73.9899 10.702 73.8608C10.26 73.7667 9.83649 73.5982 9.44878 73.3622C9.20428 73.2162 8.96977 73.0534 8.74685 72.8749C8.66398 72.8189 8.58755 72.7535 8.519 72.68C8.60651 72.7266 8.69009 72.7806 8.7689 72.8412C8.9306 72.9499 9.1658 73.1149 9.5039 73.291C9.88806 73.5117 10.3053 73.6662 10.7387 73.7484C11.3087 73.8603 11.8991 73.7648 12.4072 73.4785C12.6944 73.2984 12.9241 73.0371 13.0683 72.7263C13.2125 72.4155 13.265 72.0686 13.2194 71.7279C13.1812 71.5411 13.1014 71.3658 12.986 71.2156C12.8706 71.0655 12.7229 70.9444 12.5542 70.862C12.3844 70.761 12.1891 70.7135 11.9929 70.7255C11.7967 70.7376 11.6084 70.8085 11.4517 70.9295C11.2985 71.0698 11.179 71.2442 11.1025 71.4393C11.026 71.6343 10.9946 71.8446 11.0107 72.054C11.0568 72.5063 11.2361 72.9336 11.5252 73.2798C11.8164 73.656 12.1681 73.9792 12.5652 74.2357C12.9636 74.5017 13.4304 74.6413 13.9066 74.6367C14.3821 74.6029 14.8332 74.4091 15.1892 74.0857C15.5421 73.7756 15.8147 73.3817 15.983 72.9387C16.1465 72.5067 16.2433 72.0515 16.2696 71.5892C16.3042 71.1477 16.277 70.7034 16.1888 70.2697C16.1155 69.863 15.8935 69.4999 15.5677 69.2539C15.4205 69.1406 15.2456 69.0709 15.0621 69.0523C14.8787 69.0338 14.6937 69.0672 14.5277 69.1489C14.3834 69.2443 14.2677 69.3784 14.1932 69.5364C14.1186 69.6944 14.0881 69.8703 14.105 70.0448C14.1225 70.3824 14.2264 70.7094 14.4064 70.9932C14.7393 71.4785 15.2158 71.8424 15.7661 72.0315C16.1809 72.1798 16.6224 72.2336 17.0597 72.189C17.4348 72.1406 17.7997 72.0305 18.1402 71.8628Z" fill="#263238"/>
<path d="M206.132 69.1038C203.251 67.3982 201.722 63.4323 201.594 60.1861C201.465 56.9399 202.803 53.5512 205.412 51.6919C208.161 49.7314 212.075 49.7689 214.901 51.6132C217.727 53.4575 219.381 56.9399 219.252 60.3585C219.156 62.0715 218.689 63.7415 217.884 65.248C217.078 66.7545 215.955 68.0599 214.596 69.0701" fill="#73C255"/>
<path d="M210.733 69.415C210.692 69.1675 210.675 68.9163 210.682 68.6653C210.682 68.1368 210.649 67.4545 210.623 66.6411C210.583 64.9318 210.517 62.5702 210.403 59.965C210.289 57.3598 210.153 55.002 210.035 53.2964C209.987 52.483 209.947 51.797 209.918 51.2759C209.893 51.0267 209.893 50.7755 209.918 50.5262C209.98 50.7716 210.018 51.0228 210.032 51.2759C210.09 51.752 210.16 52.4417 210.237 53.2926C210.388 54.9982 210.557 57.356 210.671 59.965C210.785 62.574 210.818 64.9393 210.811 66.6524C210.811 67.507 210.811 68.2005 210.781 68.6766C210.789 68.9237 210.773 69.1711 210.733 69.415Z" fill="white"/>
<path d="M202.446 59.4515C202.446 59.5264 201.979 59.5489 201.417 59.5039C200.855 59.459 200.406 59.3578 200.414 59.279C200.421 59.2003 200.88 59.1816 201.439 59.2265C201.998 59.2715 202.45 59.3765 202.446 59.4515Z" fill="#263238"/>
<path d="M202.604 56.5388C202.571 56.6063 202.178 56.4976 201.718 56.2877C201.259 56.0777 200.91 55.8566 200.939 55.7854C200.969 55.7141 201.369 55.8303 201.825 56.0365C202.281 56.2427 202.626 56.4676 202.604 56.5388Z" fill="#263238"/>
<path d="M204.07 54.376C204.034 54.4397 203.589 54.226 203.126 53.8324C202.663 53.4388 202.369 53.034 202.424 52.9853C202.479 52.9365 202.847 53.2439 203.295 53.6225C203.743 54.0011 204.114 54.3122 204.07 54.376Z" fill="#263238"/>
<path d="M205.566 52.3367C205.497 52.3667 205.283 52.0256 205.089 51.587C204.894 51.1484 204.791 50.7474 204.857 50.7136C204.923 50.6799 205.14 51.0248 205.335 51.4633C205.53 51.9019 205.618 52.3067 205.566 52.3367Z" fill="#263238"/>
<path d="M207.867 50.8899C207.801 50.9198 207.573 50.56 207.419 50.0577C207.264 49.5554 207.253 49.1206 207.327 49.1093C207.4 49.0981 207.529 49.4842 207.694 49.9752C207.86 50.4663 207.937 50.8561 207.867 50.8899Z" fill="#263238"/>
<path d="M211.737 49.2592C211.806 49.2817 211.762 49.5928 211.641 49.9489C211.52 50.305 211.358 50.5749 211.273 50.5487C211.189 50.5224 211.248 50.215 211.369 49.8589C211.49 49.5028 211.667 49.2367 211.737 49.2592Z" fill="#263238"/>
<path d="M214.607 50.515C214.655 50.5712 214.471 50.8261 214.195 51.0885C213.92 51.3509 213.651 51.5196 213.6 51.4633C213.548 51.4071 213.732 51.1484 214.011 50.8861C214.291 50.6237 214.555 50.4587 214.607 50.515Z" fill="#263238"/>
<path d="M217.131 52.1792C217.172 52.2392 216.948 52.4716 216.632 52.689C216.316 52.9064 216.018 53.0376 215.978 52.9739C215.937 52.9102 216.161 52.6815 216.477 52.4604C216.793 52.2392 217.091 52.1155 217.131 52.1792Z" fill="#263238"/>
<path d="M218.925 54.6571C218.954 54.7283 218.602 54.9495 218.135 55.1519C217.668 55.3543 217.268 55.463 217.238 55.3918C217.209 55.3206 217.562 55.1031 218.028 54.897C218.495 54.6908 218.896 54.5896 218.925 54.6571Z" fill="#263238"/>
<path d="M219.631 57.3635C219.631 57.4385 219.282 57.5472 218.83 57.6035C218.378 57.6597 217.999 57.6484 217.992 57.5697C217.984 57.491 218.359 57.3898 218.793 57.3298C219.226 57.2698 219.623 57.2886 219.631 57.3635Z" fill="#263238"/>
<path d="M219.998 60.6959C219.969 60.7634 219.586 60.6622 219.142 60.4635C218.697 60.2649 218.363 60.0512 218.407 59.9837C218.451 59.9163 218.822 60.0175 219.267 60.2124C219.711 60.4073 220.027 60.6247 219.998 60.6959Z" fill="#263238"/>
<path d="M219.675 63.5523C219.653 63.6235 219.168 63.5036 218.66 63.1775C218.153 62.8513 217.852 62.4278 217.903 62.3828C217.955 62.3378 218.326 62.6264 218.807 62.945C219.289 63.2637 219.704 63.4811 219.675 63.5523Z" fill="#263238"/>
<path d="M218.216 66.1539C218.172 66.2138 217.786 65.9814 217.415 65.5728C217.043 65.1642 216.845 64.7594 216.907 64.7182C216.97 64.6769 217.257 64.9993 217.613 65.3854C217.97 65.7715 218.264 66.1051 218.216 66.1539Z" fill="#263238"/>
<path d="M204.365 66.4799C204.398 66.5474 203.997 66.8323 203.461 67.1134C202.924 67.3945 202.465 67.5745 202.428 67.507C202.391 67.4395 202.795 67.1546 203.336 66.8697C203.876 66.5849 204.332 66.3937 204.365 66.4799Z" fill="#263238"/>
<path d="M203.1 64.1072C203.13 64.1746 202.806 64.3958 202.365 64.5945C201.924 64.7931 201.56 64.8981 201.527 64.8306C201.494 64.7631 201.821 64.542 202.262 64.3433C202.703 64.1446 203.067 64.0359 203.1 64.1072Z" fill="#263238"/>
<path d="M202.167 62.023C202.167 62.0979 201.778 62.2179 201.274 62.2891C200.771 62.3603 200.355 62.3603 200.344 62.2891C200.333 62.2179 200.734 62.0942 201.237 62.023C201.741 61.9517 202.16 61.948 202.167 62.023Z" fill="#263238"/>
<path d="M205.221 60.8572C205.243 60.9284 204.854 61.1158 204.332 61.1758C203.81 61.2358 203.391 61.1421 203.395 61.0671C203.398 60.9921 203.81 60.9584 204.302 60.9022C204.795 60.8459 205.199 60.7972 205.221 60.8572Z" fill="#263238"/>
<path d="M207.771 58.3006C207.793 58.3718 207.485 58.533 207.066 58.5743C206.647 58.6155 206.331 58.5218 206.331 58.4468C206.331 58.3718 206.662 58.3381 207.066 58.3006C207.47 58.2631 207.731 58.2331 207.771 58.3006Z" fill="#263238"/>
<path d="M208.238 56.2389C208.212 56.3139 207.87 56.2577 207.503 56.1227C207.135 55.9878 206.816 55.8154 206.841 55.7479C206.867 55.6804 207.209 55.7291 207.576 55.8641C207.944 55.999 208.264 56.1677 208.238 56.2389Z" fill="#263238"/>
<path d="M209.168 54.1585C209.116 54.211 208.885 54.0535 208.719 53.7611C208.554 53.4687 208.539 53.1876 208.609 53.1689C208.679 53.1501 208.807 53.3675 208.954 53.6262C209.101 53.8848 209.241 54.1097 209.168 54.1585Z" fill="#263238"/>
<path d="M208.047 62.6864C208.047 62.7614 207.775 62.9001 207.396 62.9938C207.219 63.0416 207.036 63.068 206.852 63.0725L206.797 62.9151C206.897 62.8963 206.959 62.9151 206.97 62.9151C206.981 62.9151 206.944 62.9938 206.863 63.0538L206.812 62.8926C206.979 62.8134 207.154 62.7518 207.334 62.7089C207.709 62.6302 208.028 62.6152 208.047 62.6864Z" fill="#263238"/>
<path d="M208.569 66.3413C208.598 66.4125 208.227 66.6262 207.742 66.8211C207.257 67.016 206.841 67.1172 206.812 67.046C206.783 66.9748 207.157 66.7611 207.643 66.5662C208.128 66.3713 208.543 66.2701 208.569 66.3413Z" fill="#263238"/>
<path d="M205.706 64.7181C205.732 64.7893 205.482 64.943 205.155 65.0555C204.828 65.1679 204.537 65.2054 204.515 65.1342C204.493 65.063 204.736 64.9093 205.067 64.7968C205.397 64.6844 205.684 64.6469 205.706 64.7181Z" fill="#263238"/>
<path d="M205.934 57.281C205.915 57.3559 205.485 57.311 204.986 57.131C204.486 56.9511 204.126 56.7074 204.159 56.64C204.192 56.5725 204.592 56.6962 205.077 56.8724C205.563 57.0486 205.934 57.206 205.934 57.281Z" fill="#263238"/>
<path d="M212.854 56.4751C212.894 56.5388 212.652 56.7749 212.31 57.0036C211.968 57.2323 211.663 57.3785 211.623 57.3035C211.582 57.2285 211.821 57.0036 212.163 56.7749C212.505 56.5463 212.814 56.4113 212.854 56.4751Z" fill="#263238"/>
<path d="M213.229 60.1412C213.229 60.2161 212.99 60.3324 212.659 60.4036C212.328 60.4748 212.053 60.4711 212.038 60.4036C212.023 60.3361 212.277 60.2124 212.608 60.1412C212.938 60.07 213.214 60.07 213.229 60.1412Z" fill="#263238"/>
<path d="M213.67 64.2683C213.636 64.3358 213.269 64.2308 212.846 64.0321C212.424 63.8335 212.111 63.6161 212.141 63.5448C212.17 63.4736 212.541 63.5823 212.96 63.781C213.379 63.9797 213.699 64.1971 213.67 64.2683Z" fill="#263238"/>
<path d="M212.74 68.2829C212.685 68.3317 212.446 68.133 212.211 67.8406C211.976 67.5482 211.843 67.2671 211.884 67.2221C211.924 67.1771 212.181 67.372 212.417 67.6644C212.652 67.9568 212.799 68.2342 212.74 68.2829Z" fill="#263238"/>
<path d="M212.549 53.7725C212.593 53.8324 212.435 54.0349 212.181 54.1736C211.928 54.3123 211.66 54.3197 211.641 54.2448C211.623 54.1698 211.818 54.0499 212.06 53.9262C212.303 53.8025 212.505 53.7125 212.549 53.7725Z" fill="#263238"/>
<path d="M215.948 57.4834C215.97 57.5546 215.658 57.7308 215.213 57.7908C214.769 57.8508 214.434 57.7721 214.438 57.6971C214.441 57.6221 214.776 57.5771 215.173 57.5171C215.57 57.4572 215.922 57.4009 215.948 57.4834Z" fill="#263238"/>
<path d="M215.272 54.151C215.305 54.2185 214.993 54.4434 214.537 54.5896C214.081 54.7358 213.71 54.7358 213.699 54.6608C213.688 54.5858 214.034 54.4659 214.456 54.3272C214.879 54.1885 215.235 54.0835 215.272 54.151Z" fill="#263238"/>
<path d="M216.687 62.6189C216.687 62.6902 216.154 62.7389 215.511 62.6189C214.868 62.499 214.383 62.2666 214.409 62.1954C214.434 62.1241 214.938 62.2366 215.559 62.3491C216.18 62.4615 216.691 62.5402 216.687 62.6189Z" fill="#263238"/>
<path d="M215.426 67.4433C215.382 67.5033 214.989 67.2671 214.596 66.8623C214.203 66.4574 213.975 66.0601 214.034 66.0151C214.092 65.9701 214.401 66.2812 214.791 66.6673C215.18 67.0534 215.489 67.3833 215.426 67.4433Z" fill="#263238"/>
<path d="M209.881 50.2263C209.016 50.7595 208.22 51.4004 207.51 52.1343C205.867 53.9792 204.838 56.3068 204.57 58.7842C204.448 60.1444 204.508 61.5154 204.75 62.8588C204.936 63.9627 205.181 65.0553 205.485 66.1313C205.743 67.0497 205.982 67.7881 206.14 68.3017C206.238 68.562 206.314 68.8304 206.367 69.1039C206.237 68.8576 206.128 68.6006 206.04 68.3354C205.853 67.8369 205.585 67.1059 205.305 66.1875C204.969 65.1108 204.698 64.0142 204.493 62.9038C204.233 61.5374 204.165 60.1402 204.291 58.7542C204.566 56.2211 205.649 53.8503 207.374 52.0069C207.9 51.459 208.494 50.985 209.142 50.5974C209.316 50.4911 209.497 50.396 209.682 50.3125C209.807 50.2451 209.873 50.2151 209.881 50.2263Z" fill="white"/>
<path d="M213.563 69.2801C214.018 68.3166 214.423 67.3294 214.776 66.3225C215.594 63.8767 215.846 61.2708 215.511 58.7092C215.327 57.3066 214.939 55.9397 214.361 54.6533C213.877 53.6105 213.212 52.6656 212.398 51.8644C211.826 51.351 211.177 50.9335 210.476 50.6274C209.976 50.4138 209.679 50.365 209.682 50.3425C209.686 50.3201 209.76 50.3425 209.903 50.3425C210.11 50.3833 210.314 50.4397 210.513 50.5112C211.246 50.786 211.926 51.1894 212.523 51.7033C213.378 52.505 214.078 53.4638 214.585 54.5296C215.188 55.8333 215.591 57.2241 215.779 58.653C216.124 61.2537 215.845 63.9007 214.967 66.3675C214.813 66.8398 214.618 67.2484 214.471 67.6157C214.324 67.9831 214.151 68.2792 214.019 68.5266C213.889 68.7912 213.737 69.0433 213.563 69.2801Z" fill="white"/>
<path d="M203.1 68.6278H217.992L218.083 71.6678H203.1V68.6278Z" fill="#263238"/>
<path d="M204.365 70.1497L205.221 79.431H216.106L216.981 70.2509L204.365 70.1497Z" fill="#263238"/>
<path d="M218.083 71.7053C218.083 71.7803 214.728 71.844 210.593 71.844C206.459 71.844 203.104 71.7803 203.104 71.7053C203.104 71.6303 206.455 71.5666 210.593 71.5666C214.732 71.5666 218.083 71.6303 218.083 71.7053Z" fill="#455A64"/>
<path d="M216.569 74.5317C216.489 74.7394 216.382 74.9348 216.25 75.1127C215.915 75.6168 215.528 76.083 215.096 76.5034L215.026 76.5709L214.96 76.496C214.066 75.5339 213.089 74.6557 212.042 73.872H212.203L210.91 75.0303L209.381 76.391L209.296 76.466L209.212 76.391L206.724 74.2581H206.871L205.585 75.8587C205.436 76.0651 205.266 76.2548 205.078 76.4247C205.196 76.1992 205.335 75.9858 205.493 75.7875L206.709 74.1306L206.772 74.0482L206.856 74.1156L209.377 76.1998H209.208L210.733 74.8354L212.031 73.6808L212.112 73.6096L212.196 73.6733C213.252 74.4657 214.225 75.3677 215.099 76.3648H214.963C215.546 75.7984 216.083 75.1854 216.569 74.5317Z" fill="#455A64"/>
</svg>
