<svg width="5" height="6" viewBox="0 0 5 6" fill="none" xmlns="http://www.w3.org/2000/svg">
<path d="M4.9416 2.54239C4.8157 2.42322 4.6736 2.3232 4.51968 2.24545C4.237 2.069 3.81932 1.8151 3.30459 1.52676L1.48613 0.493926L0.958743 0.196983C0.762899 0.043945 0.515779 -0.0241005 0.271037 0.0076277C0.195067 0.033636 0.128601 0.0825072 0.0803991 0.147805C0.0321974 0.213104 0.00451497 0.291762 0.00100732 0.373422C-0.00544011 0.507886 0.019132 0.64202 0.0727381 0.765042C0.172192 0.982163 0.295322 1.18716 0.4398 1.37614C1.02204 2.13356 1.77303 2.60264 2.3173 3.15349C2.58075 3.40449 2.8055 3.69467 2.98393 4.01419C3.14848 4.31113 3.24973 4.62959 3.37208 4.90932C3.45113 5.1456 3.57962 5.36152 3.74865 5.5421C3.91767 5.72267 4.12318 5.86359 4.35092 5.95507C4.69267 6.05835 4.88253 5.95507 4.87409 5.92925C4.70788 5.93673 4.5418 5.9119 4.38468 5.85609C4.1821 5.75436 4.00247 5.61077 3.8572 5.43445C3.71193 5.25813 3.60421 5.05291 3.54086 4.83185C3.43448 4.51709 3.31194 4.20825 3.17378 3.9066C2.99219 3.56176 2.75872 3.2481 2.48185 2.97704C1.92493 2.39607 1.18236 1.91408 0.646532 1.2083C0.515212 1.03824 0.403379 0.853426 0.313218 0.657454C0.233055 0.476707 0.2415 0.287351 0.346978 0.265834C0.452456 0.244316 0.650749 0.33469 0.827952 0.43367L1.35956 0.722011L3.20332 1.70321C3.73071 1.97863 4.16106 2.19811 4.46906 2.34443C4.61711 2.43183 4.77606 2.49842 4.9416 2.54239Z" fill="#EB996E"/>
</svg>
