<svg width="192" height="52" viewBox="0 0 192 52" fill="none" xmlns="http://www.w3.org/2000/svg">
<path d="M25.888 24.0004H11.111C9.94513 24.0004 9 24.9455 9 26.1114V40.8883C9 42.0542 9.94513 42.9993 11.111 42.9993H25.888C27.0538 42.9993 27.999 42.0542 27.999 40.8883V26.1114C27.999 24.9455 27.0538 24.0004 25.888 24.0004Z" stroke="#1DA1F2" stroke-width="2" stroke-linecap="round" stroke-linejoin="round"/>
<path d="M14.8059 31.3877C15.6803 31.3877 16.3891 30.6788 16.3891 29.8044C16.3891 28.93 15.6803 28.2212 14.8059 28.2212C13.9315 28.2212 13.2227 28.93 13.2227 29.8044C13.2227 30.6788 13.9315 31.3877 14.8059 31.3877Z" stroke="#1DA1F2" stroke-width="2" stroke-linecap="round" stroke-linejoin="round"/>
<path d="M27.9983 36.667L22.7208 31.3895L11.1104 43" stroke="#1DA1F2" stroke-width="2" stroke-linecap="round" stroke-linejoin="round"/>
<path d="M56.1235 43V31.125" stroke="#1DA1F2" stroke-width="2" stroke-linecap="round" stroke-linejoin="round"/>
<path d="M63.2493 42.9993V23.9993" stroke="#1DA1F2" stroke-width="2" stroke-linecap="round" stroke-linejoin="round"/>
<path d="M48.999 42.9984V38.2484" stroke="#1DA1F2" stroke-width="2" stroke-linecap="round" stroke-linejoin="round"/>
<path d="M93.7493 43C98.996 43 103.249 38.7467 103.249 33.5C103.249 28.2533 98.996 24 93.7493 24C88.5026 24 84.2493 28.2533 84.2493 33.5C84.2493 38.7467 88.5026 43 93.7493 43Z" stroke="#1DA1F2" stroke-width="2" stroke-linecap="round" stroke-linejoin="round"/>
<path d="M89.9495 35.4003C89.9495 35.4003 91.3745 37.3003 93.7495 37.3003C96.1245 37.3003 97.5495 35.4003 97.5495 35.4003" stroke="#1DA1F2" stroke-width="2" stroke-linecap="round" stroke-linejoin="round"/>
<path d="M90.8989 30.6498H90.9091" stroke="#1DA1F2" stroke-width="2" stroke-linecap="round" stroke-linejoin="round"/>
<path d="M96.5991 30.6498H96.6093" stroke="#1DA1F2" stroke-width="2" stroke-linecap="round" stroke-linejoin="round"/>
<path d="M137.449 25.9H124.149C123.1 25.9 122.249 26.7507 122.249 27.8V41.1C122.249 42.1494 123.1 43 124.149 43H137.449C138.499 43 139.349 42.1494 139.349 41.1V27.8C139.349 26.7507 138.499 25.9 137.449 25.9Z" stroke="#1DA1F2" stroke-width="2" stroke-linecap="round" stroke-linejoin="round"/>
<path d="M134.599 24V27.8" stroke="#1DA1F2" stroke-width="2" stroke-linecap="round" stroke-linejoin="round"/>
<path d="M126.999 24V27.8" stroke="#1DA1F2" stroke-width="2" stroke-linecap="round" stroke-linejoin="round"/>
<path d="M122.249 31.6H139.349" stroke="#1DA1F2" stroke-width="2" stroke-linecap="round" stroke-linejoin="round"/>
</svg>
