<svg width="15" height="22" viewBox="0 0 15 22" fill="none" xmlns="http://www.w3.org/2000/svg">
<path d="M13.4148 21.9336C11.9495 22.2341 11.8211 21.4752 10.7259 20.439C10.1817 19.914 9.76551 19.2665 9.51044 18.5481C9.25536 17.8298 9.1685 17.0606 9.25679 16.3019C9.41919 14.9653 10.1254 13.6055 9.67221 12.3497C9.07175 10.6779 6.77938 10.1656 6.17136 8.49765C5.81637 7.53078 6.1336 6.39828 5.73328 5.44682C5.35563 4.55699 4.43794 4.04081 3.5429 3.71339C2.64786 3.38596 1.68485 3.15484 0.933316 2.55777C0.181786 1.9607 -0.286497 0.835898 0.196899 0C4.17287 0.486247 8.07773 1.45483 11.8286 2.8852C12.701 3.21647 13.6111 3.61323 14.1247 4.39905C14.6383 5.18488 14.6421 6.32509 14.5968 7.31122L13.9284 21.9491" fill="#263238"/>
</svg>
