<svg width="17" height="34" viewBox="0 0 17 34" fill="none" xmlns="http://www.w3.org/2000/svg">
<path d="M5.10021 28.3866C5.10021 25.8186 5.0706 23.3147 5.0706 23.3298C5.0706 23.3449 1.07193 22.6425 0.257388 17.3176C-0.146182 14.674 -0.00919255 10.3311 0.220361 6.78113C0.423997 3.58997 2.50479 -0.322512 5.62597 0.0211516L15.3598 2.55142C15.8133 2.60449 16.2316 2.82663 16.5344 3.17516C16.8371 3.5237 17.0029 3.97404 17 4.43968L16.1077 28.549C16.0536 30.0195 15.4354 31.4096 14.3862 32.4197C13.337 33.4298 11.9408 33.9792 10.4984 33.9494C9.06556 33.9219 7.69978 33.3253 6.69162 32.2863C5.68346 31.2474 5.1125 29.8483 5.10021 28.3866Z" fill="#FFBE9D"/>
</svg>
