<svg width="17" height="22" viewBox="0 0 17 22" fill="none" xmlns="http://www.w3.org/2000/svg">
<path d="M16.3977 21.5321C16.4208 21.5127 16.4407 21.4898 16.4569 21.4641C16.5083 21.3968 16.5553 21.3262 16.5976 21.2526C16.7674 20.9658 16.8842 20.6497 16.9419 20.3199C17.041 19.7973 17.013 19.2579 16.8605 18.7489C16.6612 18.0649 16.231 17.4749 15.6461 17.0835C15.0241 16.6379 14.2207 16.3282 13.7061 15.6183C13.5767 15.4413 13.4848 15.2387 13.4363 15.0235C13.3879 14.8083 13.3839 14.5851 13.4247 14.3683C13.5293 13.8945 13.6807 13.4326 13.8764 12.9899C14.0806 12.4838 14.1801 11.9401 14.1686 11.3929C14.1572 10.8458 14.035 10.3069 13.8097 9.81016C13.5729 9.27959 13.2087 8.8185 12.7509 8.46955C12.271 8.12991 11.7258 7.8982 11.1515 7.7898C10.585 7.6614 10.0222 7.5821 9.50022 7.41216C8.98289 7.27514 8.50707 7.00911 8.11554 6.638C7.76736 6.25572 7.55601 5.76468 7.51577 5.24451C7.46711 4.72333 7.38424 4.20606 7.2677 3.69619C7.03798 2.73927 6.55071 1.86685 5.86082 1.17734C5.25234 0.575456 4.47656 0.17981 3.63941 0.044419C2.95162 -0.0701248 2.24592 0.0381788 1.62163 0.354086C1.15682 0.59827 0.75769 0.954819 0.459098 1.39259C0.271231 1.66601 0.133266 1.97176 0.0518382 2.29515C0.0204862 2.40703 0.00306614 2.52249 0 2.6388C0.100077 2.20949 0.281161 1.80417 0.533138 1.44546C0.835039 1.03335 1.23005 0.701699 1.68457 0.478707C2.28604 0.187341 2.96172 0.0949208 3.6172 0.214361C4.41378 0.353412 5.14991 0.736741 5.72753 1.31329C6.38329 1.98357 6.84567 2.82493 7.06408 3.74528C7.17402 4.24308 7.25194 4.74767 7.29733 5.25584C7.34881 5.81941 7.58035 6.35012 7.95634 6.76639C8.37322 7.16734 8.88262 7.45441 9.43728 7.60098C9.98523 7.77092 10.548 7.84644 11.1033 7.97862C11.6471 8.08018 12.164 8.29625 12.6213 8.61305C13.0488 8.93967 13.3888 9.37085 13.6098 9.86681C13.8243 10.335 13.9416 10.8434 13.9544 11.36C13.9671 11.8767 13.875 12.3904 13.6839 12.869C13.4846 13.3277 13.332 13.8061 13.2285 14.2965C13.1865 14.54 13.194 14.7897 13.2507 15.0301C13.3074 15.2705 13.412 15.4964 13.558 15.6938C14.1282 16.4491 14.9575 16.7549 15.5573 17.1779C16.1217 17.5424 16.5413 18.099 16.742 18.7489C16.8968 19.236 16.9373 19.7534 16.8605 20.2594C16.7873 20.7099 16.6302 21.1419 16.3977 21.5321Z" fill="#455A64"/>
</svg>
