<svg width="49" height="32" viewBox="0 0 49 32" fill="none" xmlns="http://www.w3.org/2000/svg">
<path d="M35.3889 16C35.3889 10.109 30.5137 5.33333 24.5 5.33333C18.4862 5.33333 13.6111 10.109 13.6111 16C13.6111 21.324 17.593 25.7369 22.7986 26.5371V19.0833H20.0338V16H22.7986V13.65C22.7986 10.9767 24.4242 9.5 26.9115 9.5C28.1028 9.5 29.3489 9.70833 29.3489 9.70833V12.3333H27.9759C26.6232 12.3333 26.2014 13.1556 26.2014 13.9991V16H29.2213L28.7386 19.0833H26.2014V26.5371C31.407 25.7369 35.3889 21.324 35.3889 16Z" fill="#1877F2"/>
<path d="M28.7386 19.0833L29.2214 16H26.2014V13.9991C26.2014 13.1556 26.6232 12.3333 27.9759 12.3333H29.349V9.70833C29.349 9.70833 28.1029 9.5 26.9115 9.5C24.4243 9.5 22.7986 10.9767 22.7986 13.65V16H20.0339V19.0833H22.7986V26.5371C23.3615 26.6235 23.9303 26.6668 24.5 26.6667C25.0788 26.6667 25.647 26.6223 26.2014 26.5371V19.0833H28.7386Z" fill="white"/>
</svg>
