<svg width="14" height="39" viewBox="0 0 14 39" fill="none" xmlns="http://www.w3.org/2000/svg">
<path d="M13.575 32.9264L9.15915 12.6481L8.90203 9.28805C8.90203 9.28805 7.89216 1.76211 7.88471 1.02852C7.88471 0.177095 7.4748 -0.0243564 7.1655 0.00225049C6.68852 0.0402603 6.35686 0.644617 6.33823 1.37441C6.33823 1.62527 6.40903 5.6087 6.40903 5.6087C6.17741 5.23518 5.92093 4.87832 5.64139 4.54063C5.05633 3.80324 3.69618 3.40033 2.28757 3.45355C0.878975 3.50676 0.513775 3.655 0.510048 4.21374C0.514975 4.31804 0.542619 4.41991 0.590962 4.51196C0.639305 4.604 0.707134 4.68391 0.789533 4.74588C1.04786 4.96256 1.37588 5.07364 1.70997 5.05756C3.94584 4.99294 4.55326 6.19785 4.55326 6.19785L4.58679 6.63497C4.58679 6.63497 3.21919 5.66191 2.14597 6.09142C1.98736 6.15575 1.84198 6.24987 1.71742 6.3689C1.41449 6.37426 1.11814 6.45984 0.857425 6.61726C0.596709 6.77468 0.380585 6.99853 0.230269 7.26684C0.0799524 7.53516 0.00060496 7.83872 3.44574e-06 8.14775C-0.000598068 8.45678 0.0775637 8.76067 0.226834 9.02959C0.289292 9.16566 0.389889 9.2798 0.515905 9.3576C0.641921 9.4354 0.787714 9.47336 0.93487 9.4667C1.08395 9.41808 1.21855 9.33178 1.32614 9.21583C1.38806 9.16006 1.45408 9.10923 1.52364 9.0638L1.7845 10.2839C1.7845 10.2839 2.52979 12.9826 2.70494 14.1951L3.9123 34.3061C3.95143 34.968 4.11935 35.6152 4.40628 36.2102C4.69321 36.8051 5.09342 37.3358 5.58355 37.7714C6.07367 38.2069 6.6439 38.5385 7.261 38.7469C7.87809 38.9553 8.52969 39.0363 9.17779 38.9852C9.87641 38.9298 10.5552 38.722 11.1683 38.3759C11.7814 38.0297 12.3144 37.5533 12.7313 36.9788C13.1483 36.4044 13.4393 35.7453 13.5849 35.0461C13.7304 34.347 13.7271 33.6241 13.575 32.9264Z" fill="#FFBE9D"/>
</svg>
