<svg width="14" height="1" viewBox="0 0 14 1" fill="none" xmlns="http://www.w3.org/2000/svg">
<path d="M14 0.0922274C13.8181 0.12101 13.634 0.133866 13.4499 0.130655L11.943 0.157555C10.6771 0.157555 8.92896 0.184455 7.00001 0.184455C5.07105 0.184455 3.31917 0.184455 2.05706 0.157555L0.550062 0.130655C0.365972 0.133866 0.181942 0.12101 0 0.0922274C0.182207 0.0662964 0.366112 0.0547321 0.550062 0.0576403L2.05706 0.0268998C3.31917 0.0268998 5.07105 0 7.00001 0C8.92896 0 10.6771 -1.17389e-07 11.943 0.0268998L13.4499 0.0576403C13.6339 0.0547321 13.8178 0.0662964 14 0.0922274Z" fill="#E0E0E0"/>
</svg>
