<svg width="19" height="16" viewBox="0 0 19 16" fill="none" xmlns="http://www.w3.org/2000/svg">
<path d="M18.6445 7.76567C18.6741 6.63241 17.6593 5.78247 16.6372 5.3745C15.615 4.96652 14.4818 4.80786 13.5707 4.18457C12.7634 3.62927 12.2227 2.768 11.5412 2.0616C10.6997 1.18781 9.64495 0.558644 8.48572 0.2389C7.32649 -0.0808447 6.10465 -0.0796078 4.94605 0.242485C3.78744 0.564578 2.73396 1.19588 1.8941 2.07137C1.05425 2.94687 0.458384 4.03489 0.167881 5.22339C-0.224687 6.81751 0.0419628 8.7025 1.27892 9.75643C2.70846 10.9879 4.82683 10.7121 6.65635 10.3306C8.48586 9.94909 10.5635 9.57511 12.093 10.6706C13.0152 11.3317 13.5448 12.4083 14.1077 13.4018C14.6707 14.3952 15.378 15.4152 16.4446 15.7892C17.5112 16.1631 18.9593 15.5172 19 14.3688" fill="#263238"/>
</svg>
