<svg width="8" height="9" viewBox="0 0 8 9" fill="none" xmlns="http://www.w3.org/2000/svg">
<path d="M8 0C8 0.0379001 7.33117 0.140233 6.31679 0.541974C4.99226 1.05978 3.79045 1.85819 2.79064 2.88452C1.79084 3.91086 1.01577 5.14178 0.516593 6.49608C0.145023 7.53454 0.0372627 8.22432 0.000105736 8.21674C-0.00159097 8.05453 0.0171384 7.89276 0.0558389 7.73541C0.13423 7.29889 0.246053 6.8693 0.390261 6.4506C0.862823 5.0558 1.63831 3.78797 2.65878 2.74184C3.67924 1.69571 4.91829 0.898347 6.28335 0.409322C6.69277 0.260964 7.1126 0.144405 7.53925 0.0606415C7.69007 0.0225653 7.84465 0.00221814 8 0Z" fill="#455A64"/>
</svg>
