<svg width="18" height="34" viewBox="0 0 18 34" fill="none" xmlns="http://www.w3.org/2000/svg">
<path d="M10.0353 33.9614C8.59793 33.8307 7.26104 33.1544 6.28913 32.0665C5.31721 30.9785 4.78107 29.558 4.78677 28.0861V22.8603C4.78677 22.8603 0.0498785 22.1095 0.00203107 17.2778C-0.0458163 12.4462 0.76759 1.36387 0.76759 1.36387C3.45818 0.184249 6.40869 -0.241425 9.31447 0.130794C12.2203 0.503013 14.976 1.65963 17.297 3.48122L18 4.03309L16.2849 28.5291C16.2302 29.3066 16.0244 30.0652 15.6794 30.7608C15.3345 31.4563 14.8573 32.0749 14.2756 32.5805C13.694 33.0861 13.0195 33.4685 12.2915 33.7056C11.5635 33.9427 10.7965 34.0297 10.0353 33.9614Z" fill="#B78876"/>
</svg>
