<svg width="29" height="44" viewBox="0 0 29 44" fill="none" xmlns="http://www.w3.org/2000/svg">
<path d="M0.137369 0.0492286C0.137369 0.0492286 0.137369 0.124967 0.137369 0.265082C0.137369 0.405197 0.137369 0.62105 0.137369 0.886133C0.137369 1.44154 0.137369 2.2431 0.137369 3.29081C0.137369 5.39254 0.137368 8.44857 0.170781 12.3074C0.170781 20.0213 0.207909 30.9428 0.230185 43.8031L0.107667 43.6743H28.4946L28.3609 43.8144C28.3609 27.3073 28.3609 12.0916 28.3869 0.0605889L28.4946 0.170409L7.84111 0.113605L2.12735 0.0870971H0.642289H0.122518C0.122518 0.0870971 0.285876 0.0870971 0.620014 0.0870971H2.10507L7.79285 0.0568041L28.5131 0H28.6208V0.10982C28.6208 12.1408 28.6208 27.3566 28.6505 43.8636V44H28.5131H0.126231H0V43.875C0.0259885 30.9996 0.0482666 20.0175 0.0631171 12.2961C0.0631171 8.44857 0.0891043 5.4039 0.0965296 3.30975C0.0965296 2.27593 0.0965296 1.48068 0.0965296 0.931577C0.0965296 0.670281 0.0965296 0.465788 0.0965296 0.321886C0.0965296 0.177984 0.137369 0.0492286 0.137369 0.0492286Z" fill="#E0E0E0"/>
</svg>
