<svg width="22" height="22" viewBox="0 0 22 22" fill="none" xmlns="http://www.w3.org/2000/svg">
<g clip-path="url(#clip0_49_20)">
<path d="M21.9896 11.2411C21.9896 10.3369 21.9146 9.67709 21.7527 8.99297H11.2192V13.0738H17.4021C17.2775 14.088 16.6044 15.6154 15.1085 16.6417L15.0874 16.7784L18.418 19.3073L18.6487 19.3299C20.7678 17.4115 21.9896 14.589 21.9896 11.2411Z" fill="#4285F4"/>
<path d="M11.2192 21.9935C14.2483 21.9935 16.7913 21.016 18.6487 19.3299L15.1085 16.6417C14.161 17.2893 12.8895 17.7414 11.2192 17.7414C8.25227 17.7414 5.73429 15.8231 4.83661 13.1717L4.70512 13.1827L1.24196 15.8096L1.19672 15.933C3.04155 19.5252 6.83118 21.9935 11.2192 21.9935Z" fill="#34A853"/>
<path d="M4.83661 13.1717C4.59978 12.4875 4.46278 11.7543 4.46278 10.9968C4.46278 10.2392 4.59978 9.50603 4.82416 8.82177L4.81794 8.67607L1.31138 6.00696L1.19671 6.06033C0.436324 7.55112 0 9.22503 0 10.9968C0 12.7685 0.436324 14.4424 1.19671 15.933L4.83661 13.1717Z" fill="#FBBC05"/>
<path d="M11.2192 4.25209C13.3258 4.25209 14.7469 5.14401 15.5572 5.8894L18.7235 2.85917C16.7788 1.08752 14.2483 0 11.2192 0C6.83118 0 3.04155 2.4681 1.19672 6.06033L4.82417 8.82176C5.73429 6.1704 8.25227 4.25209 11.2192 4.25209Z" fill="#EB4335"/>
</g>
<defs>
<clipPath id="clip0_49_20">
<rect width="22" height="22" fill="white"/>
</clipPath>
</defs>
</svg>
