<svg width="22" height="17" viewBox="0 0 22 17" fill="none" xmlns="http://www.w3.org/2000/svg">
<path d="M0.0118226 4.23298C-0.0231183 3.9228 0.0196919 3.60864 0.136242 3.31993C0.252791 3.03122 0.439268 2.7774 0.678211 2.58224C0.925582 2.39926 1.22857 2.31171 1.53328 2.33518C1.83799 2.35865 2.12466 2.49162 2.34228 2.71042C2.296 2.50182 2.29322 2.28562 2.33411 2.07585C2.375 1.86607 2.45865 1.66741 2.57964 1.49273C2.70064 1.31805 2.85626 1.17125 3.03644 1.06185C3.21662 0.952459 3.41733 0.882907 3.62555 0.857705C4.42522 0.807212 5.10684 1.4209 5.87985 1.63452C6.64986 1.79852 7.4512 1.70452 8.16461 1.36652C8.89193 1.06745 9.56974 0.655732 10.3009 0.383846C11.8496 -0.190112 13.5578 -0.118073 15.0548 0.584332C16.5519 1.28674 17.717 2.56286 18.2975 4.13588C19.3676 3.79408 20.5823 4.3495 21.2487 5.27392C21.8718 6.24056 22.1201 7.40902 21.9455 8.55209C21.8428 9.31835 21.655 10.0702 21.3858 10.7932C21.3858 10.8592 21.3858 10.9214 21.3858 10.9835C21.3362 13.7335 21.0316 16.9573 19.8626 16.9767C17.8596 17.0078 18.3394 13.1586 18.3394 13.1586C15.8795 12.1915 16.7972 8.43557 16.1803 7.86461C15.5634 7.29364 14.2763 5.96917 9.13563 8.64143C7.13647 9.68236 4.47853 9.65129 3.04294 9.31338L2.91347 9.29007H2.88301L2.84112 9.27065C2.37371 9.15319 1.92766 8.96045 1.51977 8.69969C1.03867 8.41766 0.658439 7.98629 0.434503 7.46843C0.32948 7.20935 0.300205 6.9248 0.350206 6.64912C0.400206 6.37344 0.527348 6.11841 0.716293 5.9148C0.326091 5.43602 0.0812691 4.85155 0.0118226 4.23298Z" fill="#263238"/>
</svg>
