<svg width="2" height="6" viewBox="0 0 2 6" fill="none" xmlns="http://www.w3.org/2000/svg">
<path d="M1.24745 6.00006C1.15153 5.70455 1.09017 5.39853 1.06462 5.08834C0.975237 4.52473 0.869592 3.74147 0.763956 2.87119C0.658319 2.00091 0.593318 1.21351 0.516122 0.658186C0.483946 0.447427 0.373346 0.257435 0.207335 0.127729C0.0854465 0.0407011 -0.00392981 0.0324109 0.000133132 0.0158341C0.00419607 -0.000742727 0.0976418 -0.0214653 0.252034 0.0531304C0.35506 0.113341 0.444493 0.195024 0.514498 0.29285C0.584503 0.390675 0.63351 0.502451 0.658328 0.62089C0.784279 1.20108 0.861474 1.97604 0.975237 2.84632C1.089 3.71661 1.16213 4.504 1.21088 5.07176C1.25774 5.37876 1.27 5.69022 1.24745 6.00006Z" fill="#263238"/>
</svg>
