<svg width="50" height="35" viewBox="0 0 50 35" fill="none" xmlns="http://www.w3.org/2000/svg">
<path d="M49.9004 34.1856C49.9004 34.1856 49.9004 33.9711 49.9004 33.5649C49.9004 33.1586 49.9004 32.5568 49.9004 31.7706C49.9004 30.1945 49.9004 27.8849 49.882 24.9245C49.882 19.0112 49.8599 10.51 49.8451 0.146703L49.9152 0.221937H0.0811333L0.17333 0.127896C0.17333 12.2553 0.17333 23.7847 0.17333 34.1668L0.0885163 34.084L35.9935 34.1254L46.2531 34.1479H48.9821H49.6865H48.9932H46.2789L36.0414 34.1705L0.0811333 34.2119H0V34.1291C0 23.7471 0 12.2177 0 0.090278V0H0.0921965H49.9262H50V0.0714716C50 10.4535 49.9705 18.9698 49.9631 24.8981C49.9631 27.851 49.9631 30.1644 49.9631 31.7292C49.9631 32.5079 49.9631 33.106 49.9631 33.5085C49.9631 33.911 49.9004 34.1856 49.9004 34.1856Z" fill="#E0E0E0"/>
</svg>
