<svg width="13" height="3" viewBox="0 0 13 3" fill="none" xmlns="http://www.w3.org/2000/svg">
<path d="M12.9183 2.83236C12.9367 2.63495 12.9367 2.4362 12.9183 2.23878C12.8342 1.7062 12.5703 1.22033 12.1722 0.865194C11.5709 0.348096 10.7972 0.0877414 10.0123 0.138443C9.05061 0.203522 8.10447 0.419119 7.20707 0.777676C6.73073 0.945699 6.24642 1.0892 5.75596 1.20764C4.5084 1.48655 3.21176 1.43679 1.98829 1.06305C1.46946 0.906334 0.969077 0.691973 0.496139 0.423816C0.367963 0.353043 0.243452 0.275572 0.123103 0.191713C0.0773504 0.166916 0.0357888 0.1348 0 0.0965883C0 0.0965883 0.182788 0.203126 0.518521 0.37435C0.995382 0.622171 1.49522 0.821007 2.01067 0.967925C2.76948 1.18105 3.55552 1.27598 4.34215 1.24949C4.8054 1.23328 5.2662 1.17341 5.71865 1.07066C6.19241 0.960316 6.66989 0.80431 7.15857 0.640697C8.06968 0.2766 9.03162 0.0621288 10.0086 0.00526688C10.8265 -0.042725 11.6302 0.238739 12.2468 0.78909C12.6596 1.16245 12.9249 1.6765 12.9929 2.23498C13.0139 2.43732 12.9883 2.64186 12.9183 2.83236Z" fill="#455A64"/>
</svg>
