<svg width="5" height="8" viewBox="0 0 5 8" fill="none" xmlns="http://www.w3.org/2000/svg">
<path d="M1.73641 1.24113C2.15094 0.858363 2.62315 0.546129 3.13494 0.316399C3.47424 0.159989 3.83468 0.0565411 4.20416 0.00953377C4.46842 -0.015347 4.61071 0.00953756 4.63103 0.0717395C4.65949 0.20029 4.13098 0.382747 3.41139 0.859628C2.47953 1.44551 1.73308 2.29305 1.2615 3.30068C0.789917 4.30831 0.613209 5.43327 0.752557 6.54074C0.841998 7.40327 1.03307 7.93821 0.915174 7.99627C0.866388 8.02115 0.748493 7.92162 0.602136 7.6977C0.412998 7.37371 0.271889 7.02296 0.183391 6.65685C0.0353238 6.10633 -0.0237203 5.53487 0.00857847 4.96496C0.0473064 4.25828 0.218428 3.56572 0.512695 2.92473" fill="white"/>
</svg>
